<svg width="106" height="50" viewBox="0 0 106 50" fill="none" xmlns="http://www.w3.org/2000/svg">
<path d="M50.8717 39.776C50.6756 39.776 50.5174 39.9361 50.5174 40.1346C50.5174 40.3332 50.6756 40.4933 50.8717 40.4933C51.0678 40.4933 51.2259 40.3332 51.2259 40.1346C51.2259 39.9361 51.0678 39.776 50.8717 39.776ZM44.3247 40.5125C44.7169 40.5125 45.0774 40.3908 45.3431 40.1667C45.6151 39.9425 45.7606 39.635 45.7606 39.2956C45.7543 38.495 45.0774 38.258 44.4512 38.0979C43.6795 37.9057 43.4075 37.7136 43.4075 37.3741C43.4138 37.0411 43.6732 36.708 44.2551 36.7016C44.9256 36.7016 45.1154 37.0027 45.2735 37.3613L45.2988 37.419L45.7606 37.246L45.7416 37.1884C45.5898 36.7465 45.2166 36.2213 44.2614 36.2213C43.3759 36.2213 42.8951 36.7977 42.8951 37.3485C42.9015 38.1043 43.5467 38.3733 44.1792 38.5398C44.913 38.732 45.2609 38.8985 45.2609 39.3084C45.2609 39.7439 44.8814 40.0386 44.3121 40.0386H44.2741C43.6415 40.0257 43.3885 39.6863 43.1418 39.2764L43.1039 39.2187L42.6801 39.4877L42.7117 39.5454C43.1228 40.2243 43.5467 40.4869 44.2804 40.5061L44.3247 40.5125ZM65.1675 38.9561L66.597 36.9642V38.9433L65.1675 38.9561ZM66.5907 40.4228H67.0841V39.4429H67.6218V38.9433H67.0841V36.3109H66.5022L64.5286 39.0074V39.4493H66.597V40.4228H66.5907ZM62.0363 38.0915C61.5809 38.0915 61.2456 37.7969 61.2456 37.3741V37.3613C61.2456 36.9963 61.5619 36.6952 62.0363 36.6952C62.5107 36.6952 62.827 36.9963 62.827 37.3741V37.3869C62.8333 37.7969 62.4917 38.0915 62.0363 38.0915ZM62.0363 40.0065C61.4417 40.0065 61.0875 39.6671 61.0875 39.27V39.2572C61.0875 38.8088 61.4986 38.5078 62.0363 38.5078C62.574 38.5078 62.9851 38.8024 62.9851 39.2572V39.27C62.9915 39.6799 62.6309 40.0065 62.0363 40.0065ZM62.0363 40.4805C62.8586 40.4805 63.4722 40.0257 63.4722 39.2956V39.2828C63.4722 38.796 63.2065 38.5078 62.7954 38.3028C63.1117 38.1235 63.3457 37.8481 63.3457 37.3934V37.3805C63.3457 36.7529 62.7891 36.2789 62.0426 36.2789C61.2899 36.2789 60.7396 36.7593 60.7396 37.3805V37.3934C60.7396 37.8481 60.9736 38.1235 61.2899 38.3028C60.8661 38.495 60.6131 38.8024 60.6131 39.2956V39.3084C60.6004 40.0129 61.214 40.4805 62.0363 40.4805ZM58.1081 38.0915C57.6527 38.0915 57.3174 37.7969 57.3174 37.3741V37.3613C57.3174 36.9963 57.6337 36.6952 58.1081 36.6952C58.5825 36.6952 58.9052 36.9963 58.9052 37.3741V37.3869C58.9052 37.7969 58.5636 38.0915 58.1081 38.0915ZM58.1081 40.0065C57.5135 40.0065 57.1593 39.6671 57.1593 39.27V39.2572C57.1593 38.8088 57.5705 38.5078 58.1081 38.5078C58.6458 38.5078 59.057 38.8024 59.057 39.2572V39.27C59.057 39.6799 58.7027 40.0065 58.1081 40.0065ZM58.1081 40.4805C58.9305 40.4805 59.544 40.0257 59.544 39.2956V39.2828C59.544 38.796 59.2784 38.5078 58.8672 38.3028C59.1835 38.1235 59.4112 37.8481 59.4112 37.3934V37.3805C59.4112 36.7529 58.8609 36.2789 58.1081 36.2789C57.3554 36.2789 56.8051 36.7593 56.8051 37.3805V37.3934C56.8051 37.8481 57.0391 38.1235 57.3554 38.3028C56.9316 38.495 56.6785 38.8024 56.6785 39.2956V39.3084C56.6722 40.0129 57.2858 40.4805 58.1081 40.4805ZM55.2426 40.4293V36.2853H54.1799V36.7913H54.705V40.4357L55.2426 40.4293ZM39.5932 39.9233V38.6167H41.4719V38.1107H39.5932V36.7913H41.6237V36.2853H39.0555V40.4293H41.7502V39.9169H39.5932V39.9233ZM47.9366 40.4421H48.4743V36.7913H49.7141V36.2853H46.7094V36.7913H47.9429V40.4421H47.9366ZM73.5299 17.5447C70.1836 16.6673 68.4062 15.745 68.3809 13.7659V13.721C68.4315 11.9021 69.7915 10.1856 72.5621 10.1599C75.9842 10.1279 76.9647 11.7612 77.73 13.5481L79.3304 12.9461C78.4954 10.4033 76.5092 8.48828 72.6822 8.48828C68.9312 8.48828 66.5844 10.9541 66.5844 13.5737V13.6186C66.6223 16.9491 69.2158 18.2236 72.3596 19.0819C75.7628 20.0106 77.6858 20.8304 77.6731 23.0593V23.1041C77.6731 25.5444 75.4845 27.0175 72.7139 26.947C69.4689 26.8702 68.1974 24.9167 67.1474 23.117L65.6862 24.0777C67.5775 27.2993 69.4689 28.4842 72.7771 28.5739C76.5282 28.6764 79.438 26.2361 79.438 23.0657V23.0209C79.4063 19.5943 76.8761 18.4222 73.5299 17.5447ZM54.4013 16.7633C53.2311 15.4119 52.0482 14.0861 52.0925 12.8756V12.8308C52.1305 11.5114 53.1426 10.3585 54.7935 10.3905C56.3939 10.4161 57.3491 11.7291 57.3174 13.0229V13.0677C57.2732 14.4512 56.4319 15.5528 54.4013 16.7633ZM54.5342 26.7677C51.9723 26.7101 50.3087 25.0192 50.3213 23.0017V22.9568C50.3213 21.5221 51.5928 20.1323 53.9775 18.8513L58.6585 23.9496C57.6274 25.6212 56.4888 26.8061 54.5342 26.7677ZM63.0104 28.6443L64.2629 27.4722L60.7016 23.6742C61.5429 22.2715 62.2893 21.029 63.2888 19.3701L61.8655 18.4158C60.9926 19.9594 60.4802 20.8304 59.4998 22.3163L55.5652 17.9739C58.203 16.11 59.0443 14.8803 59.0443 12.9012C59.0443 10.9221 57.4882 8.80852 54.8188 8.78285C51.9344 8.77009 50.353 11.0054 50.353 12.8756C50.353 15.2454 51.8015 16.315 52.8642 17.6408C49.9924 19.0947 48.6198 20.8817 48.5628 23.0337V23.0785C48.4933 25.7814 50.6946 28.3561 54.3381 28.3817C57.153 28.4009 58.1777 27.3377 59.7907 25.1729L63.0104 28.6443ZM44.1413 8.72526V28.3881H42.3385V12.3568L35.9813 24.9039H34.7162L28.359 12.3568V28.3881H26.5625V8.72526H28.3779L35.3487 22.3163L42.3195 8.72526H44.1413Z" fill="white"/>
</svg>
