<svg width="106" height="50" viewBox="0 0 106 50" fill="none" xmlns="http://www.w3.org/2000/svg">
<path d="M38.9775 9.2878H46.4071C49.1359 9.23482 52.1465 9.95881 52.1465 13.2786C52.1465 14.7089 51.3014 15.8567 50.0514 16.4924C51.7415 16.9868 52.7803 18.4524 52.7803 20.2536C52.7803 24.0501 49.9986 25.1979 46.6007 25.1979H38.9775V9.2878ZM43.0972 15.5388H46.3014C47.0056 15.5388 47.9916 15.168 47.9916 14.0202C47.9916 12.8548 47.1641 12.4839 46.3014 12.4839H43.0972V15.5388ZM43.0972 21.8781H46.4247C47.7275 21.8781 48.643 21.4013 48.643 20.0946C48.643 18.6996 47.6571 18.2229 46.4247 18.2229H43.1148V21.8781H43.0972Z" fill="white"/>
<path d="M53.9239 13.6318H57.5858V15.6625H57.6386C58.202 14.1969 59.4872 13.4199 61.1069 13.4199C61.3886 13.4199 61.7055 13.4376 61.9872 13.5082V16.9692C61.4942 16.828 61.0541 16.7397 60.5435 16.7397C58.6773 16.7397 57.6914 18.0287 57.6914 19.4767V25.198H53.9062V13.6318H53.9239Z" fill="white"/>
<path d="M66.9698 12.184H63.1846V9.28809H66.9698V12.184ZM63.1846 13.632H66.9698V25.1982H63.1846V13.632Z" fill="white"/>
<path d="M76.1775 16.0866H73.836V21.3487C73.836 22.267 74.3642 22.4612 75.1916 22.4612C75.5085 22.4612 75.843 22.4259 76.1775 22.4259V25.2159C75.4909 25.2335 74.8043 25.3218 74.1177 25.3218C70.8959 25.3218 70.0684 24.3859 70.0684 21.2428V16.0866H68.1494V13.6321H70.0684V10.1357H73.8536V13.6321H76.1775V16.0866Z" fill="white"/>
<path d="M81.125 12.184H77.3398V9.28809H81.125V12.184ZM77.3575 13.632H81.1426V25.1982H77.3575V13.632Z" fill="white"/>
<path d="M85.9138 21.3843C85.9138 21.9671 86.1603 22.3909 86.53 22.6734C86.8821 22.9383 87.3927 23.0795 87.9384 23.0795C88.6779 23.0795 89.7166 22.7617 89.7166 21.8611C89.7166 20.9782 88.537 20.784 87.868 20.6427C85.4913 20.0423 82.5159 19.9717 82.5159 16.8462C82.5159 14.0562 85.5089 13.2969 87.78 13.2969C90.3152 13.2969 92.956 14.0385 93.0968 17.0404H89.6109C89.6109 16.546 89.4349 16.2458 89.118 16.0339C88.8011 15.8397 88.3786 15.7514 87.9208 15.7514C87.3046 15.7514 86.3011 15.822 86.3011 16.6166C86.3011 17.7114 88.8363 17.9057 90.5616 18.2942C92.9032 18.7709 93.5018 20.4485 93.5018 21.4197C93.5018 24.5275 90.5616 25.5517 87.9736 25.5517C85.2448 25.5517 82.4455 24.6335 82.3223 21.402H85.9138V21.3843Z" fill="white"/>
<path d="M94.3291 9.28809H98.1143V15.2213H98.1495C98.7305 14.0382 100.28 13.2965 101.653 13.2965C105.491 13.2965 105.808 16.1042 105.808 17.7817V25.1982H102.023V19.6005C102.023 18.0289 102.199 16.422 100.139 16.422C98.7129 16.422 98.0967 17.6228 98.0967 18.8942V25.1982H94.3115V9.28809H94.3291Z" fill="white"/>
<path d="M38.9775 28.2002H43.0972V40.5433H50.5091V44.1103H38.9775V28.2002Z" fill="white"/>
<path d="M52.1462 36.1115C52.2167 34.5928 52.9209 33.6216 53.942 33.0036C54.9631 32.4209 56.3011 32.209 57.604 32.209C60.3328 32.209 62.9912 32.8094 62.9912 36.0938V41.1617C62.9912 42.1506 62.9912 43.2101 63.4314 44.1283H59.6286C59.4877 43.7751 59.4525 43.422 59.3997 43.0335C58.4138 44.0577 56.9702 44.4638 55.5969 44.4638C53.3962 44.4638 51.6709 43.3513 51.6709 40.9675C51.6709 37.2063 55.7554 37.4888 58.3786 36.9591C59.03 36.8178 59.3821 36.6059 59.3821 35.8819C59.3821 35.0166 58.3434 34.6811 57.5511 34.6811C56.5124 34.6811 55.8434 35.1403 55.6673 36.1291H52.1462V36.1115ZM57.0406 42.0976C58.8363 42.0976 59.4349 41.0734 59.3469 38.6896C58.8187 39.0251 57.8328 39.0957 57.0054 39.3076C56.1603 39.5018 55.4561 39.8727 55.4561 40.7732C55.4561 41.7268 56.1955 42.0976 57.0406 42.0976Z" fill="white"/>
<path d="M64.6289 32.5445H68.2909V34.1337H68.3261C69.0127 32.9506 70.5796 32.209 71.9528 32.209C75.7908 32.209 76.1077 35.0166 76.1077 36.6942V44.1106H72.3225V38.513C72.3225 36.9237 72.4986 35.3345 70.4388 35.3345C69.0127 35.3345 68.3965 36.5353 68.3965 37.8066V44.1106H64.6113V32.5445H64.6289Z" fill="white"/>
<path d="M89.382 44.1103H85.7728V42.7682H85.72C84.9806 43.8631 83.8714 44.4458 82.5334 44.4458C78.9067 44.4458 77.375 41.3203 77.375 38.0711C77.375 35.0692 78.9771 32.2086 82.2341 32.2086C83.6602 32.2086 84.7517 32.7384 85.5264 33.7979H85.5792V28.2002H89.382V44.1103ZM81.1778 38.1948C81.1778 39.784 81.7588 41.5322 83.4841 41.5322C85.3327 41.5322 85.7376 39.7663 85.7376 38.3007C85.7376 36.6232 85.139 35.0869 83.4841 35.0869C81.7588 35.1046 81.1778 36.7291 81.1778 38.1948Z" fill="white"/>
<path d="M33.6076 40.1376C32.0407 40.6143 30.0513 41.3736 26.7063 42.4685C27.4281 39.6785 27.833 35.67 27.5866 31.3967C26.1253 31.1848 24.5408 30.7964 23.819 30.4785C24.1359 37.0474 22.7626 43.5633 22.3225 43.7928C22.3225 43.7928 17.0761 45.594 11.0726 45.2408C7.53388 45.0289 3.67827 44.0224 0.403649 41.6209L0.192383 45.5233C1.2135 46.4239 6.09023 49.3905 11.2839 49.3905C17.5338 49.4964 22.8155 47.8366 27.9387 46.1237C31.6358 44.8876 33.6076 44.146 33.6076 44.146V40.1376Z" fill="white"/>
<path d="M2.9922 33.7275C2.34079 34.2573 1.74221 34.9636 1.30207 35.8642C0.703481 37.1003 0.527426 38.7778 0.474609 39.696C3.25628 41.5678 7.76329 43.3513 12.8865 43.3513C10.1048 42.0975 6.00274 39.2546 2.9922 33.7275Z" fill="white"/>
<path d="M15.5624 43.2275C15.5624 43.2275 17.7631 43.0333 20.2454 42.4329C15.6504 41.5323 9.04834 37.5062 5.36878 32.4736C5.35118 32.4736 5.33357 32.4736 5.33357 32.4913C4.85822 32.6149 4.27724 32.8621 3.71387 33.2329C5.28076 35.811 8.48496 39.9431 15.5624 43.2275Z" fill="white"/>
<path d="M29.083 38.3007C29.171 38.3007 30.7731 36.8351 32.3576 34.1687C31.6182 33.1975 30.5795 32.3676 29.3119 31.8555C29.4527 33.9038 29.4703 35.8286 29.083 38.3007Z" fill="white"/>
<path d="M28.9072 39.8198C29.8579 39.502 31.9706 38.7956 33.6079 38.3012V37.4536C33.6079 36.9945 33.5199 36.5177 33.379 36.0763C33.2734 35.7761 33.1502 35.4759 33.0093 35.1934C31.9354 36.9239 30.5974 38.5308 28.9072 39.8198Z" fill="white"/>
<path d="M21.4071 40.4374C21.4951 40.2078 21.5479 39.9782 21.6007 39.7487C21.6712 39.4308 21.724 39.0953 21.7768 38.7598C21.8296 38.3537 21.8824 37.9476 21.9352 37.5591C21.9881 37.1 22.0233 36.6585 22.0761 36.1994C22.1113 35.7226 22.1465 35.2282 22.1817 34.7514C22.2169 34.257 22.2345 33.7802 22.2521 33.2858C22.2697 32.809 22.2873 32.3499 22.2873 31.8731C22.2873 31.4493 22.2873 31.0079 22.2697 30.5841C22.2345 29.5952 22.0761 28.624 22.3578 27.6528C22.5338 27.0701 22.7979 26.505 23.1852 26.0282C23.5549 25.5515 24.1007 25.0924 24.7169 25.057C26.4775 24.9511 28.4845 25.6221 28.9246 24.7392C29.3472 23.9093 29.0303 23.3618 28.9598 23.097C28.7486 22.5672 29.3295 22.2317 29.3295 22.2317C29.7873 21.8432 29.2415 21.4194 29.2415 21.4194C30.2098 21.1369 29.6817 20.5718 29.6817 20.5718C29.488 20.3246 29.4704 19.6889 29.4704 19.6889C29.4704 19.6889 29.8401 19.4064 30.3859 19.0886C30.7028 18.912 30.826 18.5058 30.2978 17.9761C28.8718 16.4222 28.5021 15.6452 28.5021 15.6452C28.4141 15.4686 28.4317 15.2744 28.5901 15.1861C28.7486 15.0978 28.8014 15.0801 28.8014 14.9389C28.9598 12.8375 27.9035 10.8775 27.1465 9.90627C27.3929 9.71203 27.6394 9.72969 27.6394 9.72969C26.9704 9.0057 26.2486 8.52893 25.2803 8.06981C27.3753 6.65716 27.7803 3.9731 27.7803 3.9731C28.1676 2.04836 30.0162 0.653355 30.0162 0.653355C25.157 0.0176583 22.8507 1.00652 22.8507 1.00652C22.7099 0.494431 23.0796 0 23.0796 0C17.8332 0.759304 16.5656 2.59576 16.5127 2.66639C16.2134 2.34855 16.055 1.74817 16.055 1.74817C13.9952 4.06139 13.2733 5.77424 12.9212 6.81608C12.5867 6.60418 12.305 6.25102 12.305 6.25102C11.1431 9.28823 11.1255 11.2483 11.1959 12.3254C10.791 12.2725 10.3684 12.0253 10.3684 12.0253C10.5445 14.8859 11.0902 16.6517 11.5656 17.6936C11.1959 17.7642 10.8438 17.6229 10.8438 17.6229C11.1079 18.2939 11.4071 18.9473 11.724 19.583C11.9881 20.0951 12.2522 20.5895 12.5691 21.0839C12.798 21.4548 13.0621 21.8256 13.3437 22.1611C13.4318 22.267 13.5198 22.373 13.6078 22.4613C13.7839 22.6555 13.9952 22.8144 14.1712 22.991C14.5585 23.3618 14.6994 23.9269 14.7346 24.4567C15.0339 28.4827 10.7381 30.6724 7.69238 31.7495C13.8367 38.2477 20.7381 40.3844 21.4071 40.4374Z" fill="white"/>
</svg>
