<svg width="106" height="50" viewBox="0 0 106 50" fill="none" xmlns="http://www.w3.org/2000/svg">
<path fill-rule="evenodd" clip-rule="evenodd" d="M54.8832 10.5814C55.0516 10.5257 57.847 10.5703 58.2736 10.5703C59.2167 12.2423 59.8903 14.3157 60.4067 16.4002C60.8221 18.0834 61.0803 19.722 61.3385 21.4386C61.3722 21.7061 61.5742 22.9992 61.5742 23.1664H54.8271L54.8832 10.5814ZM62.4724 6H48.877L49.3934 43.0973H55.0179L55.074 27.7701L61.81 27.759C62.0009 28.9628 62.1131 30.1444 62.1805 31.3817C62.2142 32.0171 62.2479 32.6414 62.2815 33.2767L62.4162 37.1336C62.4387 37.7913 62.4387 38.4601 62.4499 39.1178C62.4724 40.4443 62.4948 41.7596 62.4948 43.0861H67.951C68.0745 36.4536 68.1643 29.0743 67.356 22.5087C66.7722 17.8381 66.0088 13.7918 64.2462 9.5559C63.988 8.93166 63.6961 8.30743 63.4042 7.71664C63.2582 7.42682 63.1123 7.14814 62.9439 6.84717C62.7979 6.5685 62.5959 6.26753 62.4724 6Z" fill="white"/>
<path fill-rule="evenodd" clip-rule="evenodd" d="M23 6.42359C23.0449 6.5462 23.3031 15.2074 23.3143 15.5864C23.4154 18.6407 23.5164 21.695 23.6175 24.7493C23.7185 27.8036 23.7859 30.869 23.9206 33.9233C23.9879 35.4504 24.0216 36.9887 24.0665 38.5158C24.1114 40.043 24.1788 41.5813 24.2125 43.1084H30.0952L29.9717 27.7255H34.9002V22.9323H29.9605L29.983 10.8601H36.4158L36.3933 6H23V6.42359Z" fill="white"/>
<path fill-rule="evenodd" clip-rule="evenodd" d="M71.97 13.1452L71.8465 43.0973C72.1609 43.0973 77.5609 43.1307 77.7293 43.0861C77.9426 37.6798 78.1447 32.2847 78.358 26.8895C78.459 24.1808 78.5825 21.4832 78.6723 18.7745C78.7172 17.4257 78.7621 16.0658 78.8295 14.7058L78.9418 11.6738C78.953 11.462 78.9418 10.8378 78.9979 10.6594H83.7355L83.7019 6H67.21V10.6594L71.9925 10.6706C72.0374 10.7821 72.015 13.0449 71.97 13.1452Z" fill="white"/>
<path fill-rule="evenodd" clip-rule="evenodd" d="M45.6548 6H38.7168L39.4578 43.0861C39.6486 43.1195 45.4415 43.1084 45.5314 43.0861L45.6548 6Z" fill="white"/>
<path fill-rule="evenodd" clip-rule="evenodd" d="M71.9705 13.1452C72.0154 13.0449 72.0267 10.7709 71.9817 10.6706L67.1992 10.6594V6H67.1768V10.6817L71.9705 10.6929V13.1452Z" fill="#69011E"/>
</svg>
