<svg width="106" height="50" viewBox="0 0 106 50" fill="none" xmlns="http://www.w3.org/2000/svg">
<path fill-rule="evenodd" clip-rule="evenodd" d="M104.278 17.5825V20.6896C102.666 20.0819 101.231 19.7747 99.9742 19.7747C99.23 19.7747 98.6374 19.9122 98.1918 20.1782C97.7462 20.4465 97.5188 20.7768 97.5188 21.1666C97.5188 21.6848 98.0218 22.1457 99.0347 22.5585L101.961 23.9802C104.327 25.1061 105.5 26.6012 105.5 28.4793C105.5 30.0409 104.878 31.286 103.621 32.2078C102.374 33.1389 100.695 33.5998 98.6053 33.5998C97.6406 33.5998 96.7747 33.5585 96.0053 33.4713C95.2358 33.3888 94.3516 33.2191 93.3708 32.976V29.7244C95.1692 30.3321 96.8068 30.6394 98.2814 30.6394C100.041 30.6394 100.916 30.1303 100.916 29.103C100.916 28.5916 100.558 28.1789 99.8295 27.8555L96.5795 26.4728C95.3805 25.9316 94.4894 25.2758 93.906 24.4985C93.3318 23.7142 93.04 22.8153 93.04 21.788C93.04 20.3502 93.6464 19.1922 94.8453 18.3116C96.0535 17.438 97.6567 17 99.6503 17C100.298 17 101.044 17.0573 101.871 17.1628C102.705 17.2752 103.507 17.4127 104.278 17.5825Z" fill="white"/>
<path fill-rule="evenodd" clip-rule="evenodd" d="M12.2314 17.5825V20.6896C10.6191 20.0819 9.18586 19.7747 7.92949 19.7747C7.18302 19.7747 6.59277 19.9122 6.14716 20.1782C5.7016 20.4465 5.4742 20.7768 5.4742 21.1666C5.4742 21.6848 5.9841 22.1457 6.997 22.5585L9.92315 23.9802C12.2797 25.1061 13.4557 26.6012 13.4557 28.4793C13.4557 30.0409 12.8309 31.286 11.5838 32.2078C10.3274 33.1389 8.6576 33.5998 6.56062 33.5998C5.59594 33.5998 4.72773 33.5585 3.95829 33.4713C3.18886 33.3888 2.31377 33.2191 1.32617 32.976V29.7244C3.13146 30.3321 4.76911 30.6394 6.23445 30.6394C7.99383 30.6394 8.86892 30.1303 8.86892 29.103C8.86892 28.5916 8.51291 28.1789 7.79169 27.8555L4.54171 26.4728C3.33355 25.9316 2.44239 25.2758 1.86821 24.4985C1.28479 23.7142 1 22.8153 1 21.788C1 20.3502 1.60178 19.1922 2.80759 18.3116C4.00656 17.438 5.61201 17 7.60567 17C8.26025 17 8.99754 17.0573 9.83356 17.1628C10.6604 17.2752 11.462 17.4127 12.2314 17.5825Z" fill="white"/>
<path fill-rule="evenodd" clip-rule="evenodd" d="M20.3509 17.291V33.3084H15.585V17.291H20.3509Z" fill="white"/>
<path fill-rule="evenodd" clip-rule="evenodd" d="M35.8496 33.3084H24.0371V17.291H35.7049V20.2515H28.6238V23.8034H34.7656V26.4726H28.6238V30.2012H35.8496V33.3084Z" fill="white"/>
<path fill-rule="evenodd" clip-rule="evenodd" d="M38.4844 33.3084V17.291H44.3022L48.2734 27.0963L52.4284 17.291H57.9544V33.3084H53.5053V22.744L48.8889 33.4551H46.142L41.7022 22.744V33.3084H38.4844Z" fill="white"/>
<path fill-rule="evenodd" clip-rule="evenodd" d="M73.4463 33.3084H61.6338V17.291H73.3016V20.2515H66.2591V23.8034H72.4008V26.4726H66.2591V30.2012H73.4463V33.3084Z" fill="white"/>
<path fill-rule="evenodd" clip-rule="evenodd" d="M90.0249 33.3084H84.9698L79.2969 23.0352V33.3084H76.0811V17.291H81.2836L86.8097 27.3876V17.291H90.0249V33.3084Z" fill="white"/>
</svg>
