<svg width="106" height="50" viewBox="0 0 106 50" fill="none" xmlns="http://www.w3.org/2000/svg">
<mask id="mask0_267_22068" style="mask-type:luminance" maskUnits="userSpaceOnUse" x="28" y="0" width="50" height="50">
<path d="M28 0H77.4293V50H28V0Z" fill="white"/>
</mask>
<g mask="url(#mask0_267_22068)">
<path fill-rule="evenodd" clip-rule="evenodd" d="M66.445 30.5313C63.3857 30.5313 60.8969 27.9919 60.8969 24.8707C60.8969 21.7487 63.3857 19.2088 66.445 19.2088C69.5026 19.2088 71.9903 21.7487 71.9903 24.8707C71.9903 27.9919 69.5026 30.5313 66.445 30.5313ZM60.161 20.9953C58.5602 21.1974 58.4011 21.9858 58.4011 23.8718V29.6929C58.4011 30.1441 58.0415 30.511 57.5997 30.511C57.1605 30.511 56.8011 30.1442 56.7981 29.6933L56.7955 20.228C56.7983 19.7707 57.1509 19.4126 57.5983 19.4126C57.9454 19.4126 58.2533 19.6457 58.3585 19.9772C58.9082 19.5677 59.5607 19.3518 60.2509 19.3518L60.4782 19.3552C60.923 19.3552 61.2857 19.7237 61.2857 20.1768C61.2857 20.6238 60.9437 20.9607 60.4724 20.9782C60.4362 20.9782 60.2938 20.9791 60.161 20.9953ZM55.1092 25.0336C54.8278 25.3875 54.3751 25.589 53.8347 25.6007L46.0551 25.6021C46.0564 25.6223 46.0577 25.6428 46.0584 25.6624C46.093 25.8557 46.1469 26.0641 46.2225 26.2923C46.7033 27.5604 47.9337 28.9258 49.9431 28.9483C50.5828 28.9436 51.1952 28.7848 51.7622 28.4762C52.1581 28.2521 52.5181 27.9562 52.8311 27.5971C52.9225 27.4899 53.0019 27.3818 53.0787 27.2773L53.0969 27.2525C53.3294 26.9432 53.5864 26.8785 53.7614 26.8785C53.9409 26.8785 54.1249 26.9455 54.2793 27.0669C54.4422 27.1934 54.5468 27.3861 54.5737 27.6093C54.6037 27.8587 54.5303 28.1171 54.3726 28.3181L54.3415 28.3509C53.8677 28.9592 53.4172 29.3952 52.928 29.7188C52.4101 30.054 51.8494 30.2973 51.2609 30.4418C50.8082 30.5621 50.3679 30.621 49.9151 30.621C49.7023 30.621 49.4835 30.6073 49.265 30.5807C47.0052 30.2975 45.108 28.5933 44.544 26.3401C44.4331 25.8953 44.377 25.4342 44.377 24.9697C44.377 23.1192 45.2531 21.3785 46.7209 20.3128C47.6599 19.6315 48.7757 19.2715 49.9477 19.2715C51.0098 19.2715 52.0359 19.5729 52.9153 20.1438C54.1954 20.9689 55.0472 22.2514 55.3784 23.8523C55.4596 24.2941 55.3639 24.7131 55.1092 25.0336ZM43.7544 30.5831C43.5382 30.5831 43.3316 30.4912 43.1727 30.3245L39.0267 26.0973L34.8627 30.3443C34.7071 30.4972 34.5057 30.581 34.2949 30.581C33.8522 30.581 33.4921 30.2129 33.4921 29.7609C33.4921 29.5369 33.5803 29.3275 33.7404 29.1715L37.8886 24.9287L33.7341 20.6912C33.5781 20.5327 33.4921 20.3244 33.4921 20.1049C33.4921 19.6527 33.8522 19.2846 34.2949 19.2846C34.509 19.2846 34.7104 19.3689 34.8624 19.5216L39.0307 23.7596L43.1827 19.5295C43.3358 19.3717 43.539 19.2846 43.7544 19.2846C44.1993 19.2846 44.5614 19.6527 44.5614 20.1049C44.5614 20.3239 44.4776 20.5284 44.3258 20.6805L40.1742 24.9321L44.3261 29.1828C44.4777 29.3392 44.5614 29.5443 44.5614 29.7609C44.5614 30.2142 44.1993 30.5831 43.7544 30.5831ZM52.714 0C39.0631 0 28 11.1945 28 25.0024C28 38.8091 39.0631 50.0048 52.714 50.0048C66.3607 50.0048 77.4293 38.8091 77.4293 25.0024C77.4293 11.1945 66.3607 0 52.714 0Z" fill="#FFFFFE"/>
</g>
<path fill-rule="evenodd" clip-rule="evenodd" d="M66.4452 26.3136C65.6641 26.3136 65.0287 25.6665 65.0287 24.871C65.0287 24.0758 65.6641 23.4288 66.4452 23.4288C67.2246 23.4288 67.8588 24.0758 67.8588 24.871C67.8588 25.6665 67.2246 26.3136 66.4452 26.3136ZM66.4452 20.8994C64.3005 20.8994 62.5557 22.6811 62.5557 24.871C62.5557 27.0584 64.3005 28.838 66.4452 28.838C68.5876 28.838 70.3305 27.0584 70.3305 24.871C70.3305 22.6811 68.5876 20.8994 66.4452 20.8994Z" fill="#FFFFFE"/>
<path fill-rule="evenodd" clip-rule="evenodd" d="M49.9195 20.9385C48.1232 20.9385 46.5598 22.1781 46.1162 23.9542H53.7267C53.2812 22.175 51.7252 20.9385 49.9195 20.9385Z" fill="#FFFFFE"/>
</svg>
