<svg width="106" height="50" viewBox="0 0 106 50" fill="none" xmlns="http://www.w3.org/2000/svg">
<path d="M51.8099 10.702L52.0419 10.8765V11.4993C52.0211 11.5145 52.0031 11.5331 51.9885 11.5542C51.9748 11.589 51.965 11.6251 51.9591 11.662L51.6727 11.9389C51.701 12.0164 51.6258 12.0466 51.5964 12.0994V12.2352L51.5333 12.2976V12.7976L51.4592 12.8902C51.4374 12.956 51.481 13.0551 51.3808 13.1057V13.4688L51.3045 13.5529V13.8395C51.2784 13.8675 51.2533 13.8933 51.2283 13.9213V14.0646C51.2087 14.083 51.1912 14.1002 51.164 14.1282C51.1357 14.223 51.1705 14.3308 51.152 14.4267L51.2152 14.4902C51.2359 14.5705 51.2359 14.6546 51.2152 14.7348L51.1596 14.7887V15.0979L51.2228 15.1604V15.5289L51.152 15.6054V15.8209C51.127 15.8489 51.1019 15.8747 51.0758 15.9027V16.3337L51.0213 16.3865C51.0131 16.4077 51.0073 16.4298 51.0039 16.4522C51.0039 16.5858 51.0039 16.7194 51.0039 16.8455L51.0714 16.9123V17.7322L51.0006 17.8023V18.3162L50.9331 18.383V19.4066L50.7795 19.5649V20.0013L50.7076 20.0724C50.7076 20.1134 50.7076 20.1726 50.7076 20.2308C50.7076 20.2545 50.7076 20.2933 50.7174 20.2987C50.8383 20.3579 50.724 20.5217 50.8514 20.5788V21.097L50.7839 21.1735V21.4601L50.7076 21.541C50.7133 21.5973 50.7387 21.6499 50.7795 21.6896V22.0549L50.7163 22.1185V22.571L50.7773 22.6442C50.8078 22.7337 50.7087 22.752 50.7076 22.8145C50.7065 22.877 50.7501 22.8931 50.7795 22.9352V23.1506C50.6956 23.2034 50.7196 23.3273 50.6357 23.3791V23.7443L50.6989 23.8068V23.9695L50.6412 24.0277V24.4813L50.7131 24.5535V24.8465L50.7806 24.9133V25.0598L50.7065 25.1374V25.3529L50.6303 25.4348V26.607C50.6107 26.6275 50.5933 26.6448 50.5671 26.6695V26.9055L50.6259 26.9637V27.6381L50.5628 27.7006V28.1316L50.4114 28.2889C50.383 28.3654 50.4593 28.3967 50.4822 28.4365V28.8029L50.419 28.8664V29.1013L50.4778 29.1595V30.5677L50.4146 30.6313V31.1969L50.261 31.4598V33.1287L50.2066 33.1826C50.1619 33.2494 50.2131 33.3248 50.1783 33.3906L50.2632 33.5112C50.2632 33.605 50.1336 33.6642 50.1979 33.7914L50.041 33.9088V34.079C49.955 34.1211 49.9855 34.2353 49.9016 34.2891V34.9033L49.9571 34.9593C49.9648 35.0358 49.943 35.1403 49.9855 35.1942C50.0296 35.2595 50.0496 35.3379 50.0421 35.4161L49.8994 35.5303V35.9936C49.9256 36.0195 49.9495 36.0464 49.9757 36.0734V36.2134L50.0476 36.2953V36.6186L49.8689 36.9698L49.7807 36.9892C49.7426 37.0118 49.7535 37.0506 49.7513 37.0862C49.6458 37.2214 49.4979 37.318 49.3308 37.3609L49.1598 37.5354V37.7509L49.0836 37.8317V38.0408L48.8244 38.308H48.5923L48.332 38.5666C48.3233 38.5752 48.3146 38.5913 48.3059 38.5903C48.2757 38.5895 48.2458 38.5965 48.2191 38.6104C48.1924 38.6244 48.1698 38.6449 48.1534 38.67C48.0543 38.6301 48.0238 38.7853 47.9257 38.7476C47.8887 38.7993 47.8168 38.7993 47.7765 38.8305C47.6731 38.9175 47.5756 39.0111 47.4846 39.1107H47.4095L47.2853 39.2389C47.2134 39.2874 47.1034 39.2162 47.0522 39.3251H46.1525C46.1372 39.3143 46.11 39.2917 46.0817 39.269C46.0185 39.3326 45.9041 39.3186 45.8529 39.4059H45.7059L45.6286 39.477C45.5469 39.5061 45.5196 39.4253 45.4695 39.4059H45.2724L45.1842 39.338H44.9663C44.9173 39.2906 44.8748 39.2173 44.8127 39.1958C44.7557 39.1829 44.7038 39.1537 44.6635 39.1117H44.2921C44.2463 39.0094 44.0949 39.0762 44.0742 38.9652H43.8673C43.8052 38.9383 43.7584 38.8736 43.6832 38.8779C43.6364 38.795 43.5558 38.823 43.4741 38.8176C43.3782 38.6646 43.1778 38.6538 43.0449 38.5407C42.9964 38.537 42.9498 38.5202 42.91 38.4924C42.8703 38.4645 42.839 38.4264 42.8195 38.3823C42.7389 38.2132 42.5918 38.1076 42.4731 37.9697V37.8264C42.4289 37.7881 42.3993 37.736 42.3892 37.6787C42.3718 37.627 42.3075 37.5893 42.2629 37.5473C42.2363 37.5254 42.2065 37.5077 42.1746 37.4945C42.1058 37.4532 42.0493 37.3945 42.011 37.3244C41.9727 37.2544 41.954 37.1755 41.9568 37.0959C41.9307 37.0678 41.9067 37.0409 41.8806 37.014V36.8717L41.7433 36.7349V36.43L41.5756 36.3309C41.6398 36.1736 41.5037 36.1025 41.5135 35.9936C41.4285 35.9225 41.4176 35.8126 41.3664 35.7243L41.4514 35.5918C41.4035 35.484 41.2902 35.4258 41.2183 35.3299C41.2248 35.2793 41.2183 35.2341 41.1693 35.2168C41.1573 35.1985 41.1453 35.1888 41.1453 35.1791C41.1453 35.0714 41.1453 34.9582 41.1453 34.8483C41.1453 34.8376 41.1453 34.8225 41.1377 34.816C41.0691 34.746 40.9983 34.677 40.9253 34.6005V34.385L40.8491 34.3031V34.0133C40.7663 33.9422 40.7641 33.8226 40.6693 33.7537C40.5915 33.706 40.5271 33.6396 40.482 33.5608C40.4678 33.48 40.5245 33.4617 40.5517 33.4229V33.2764C40.4831 33.2085 40.4166 33.1352 40.3415 33.0716C40.2889 33.0247 40.2526 32.9624 40.238 32.8939C40.1236 32.8421 40.226 32.7118 40.1367 32.6385C40.0809 32.5791 40.0457 32.5036 40.0365 32.423C40.0149 32.2846 39.9479 32.157 39.8459 32.0599C39.7453 31.9622 39.6818 31.8332 39.6662 31.6947C39.6564 31.63 39.5747 31.616 39.5856 31.5428C39.5928 31.5197 39.5941 31.4952 39.5893 31.4715C39.5846 31.4478 39.5739 31.4256 39.5583 31.407C39.5247 31.361 39.4975 31.3106 39.4777 31.2572C39.4652 31.2141 39.4468 31.1728 39.4233 31.1344C39.3912 31.0819 39.3402 31.0434 39.2806 31.0267C39.2294 31.017 39.1858 30.9599 39.1422 30.9265V30.7002C39.0605 30.6679 39.0889 30.572 39.0333 30.5224C38.9778 30.4729 38.9244 30.4147 38.8754 30.3673C38.8264 30.3199 38.8525 30.2229 38.7665 30.1906V30.0548C38.6545 29.9516 38.5732 29.8201 38.5312 29.6745L38.2948 29.4407L38.1946 29.4148C38.1761 29.3136 38.0857 29.2414 38.0933 29.1239C38.0933 29.0614 38.0345 29.0022 38.004 28.944C37.9626 28.8643 37.8733 28.8093 37.8537 28.7113C37.8103 28.7061 37.769 28.6901 37.7337 28.6646C37.6984 28.6391 37.6704 28.6051 37.6522 28.5658V28.5076L37.3646 28.2232V28.0831C37.3309 28.0325 37.2622 28.0023 37.2884 27.9269L36.7764 27.4216V27.1339C36.6958 27.0262 36.5793 26.982 36.5499 26.8732C36.5205 26.7643 36.4018 26.7256 36.3615 26.6383L36.27 26.6609C36.2634 26.6706 36.2514 26.6803 36.2514 26.69C36.2514 26.8969 36.2514 27.1048 36.2514 27.3128C36.295 27.3936 36.3375 27.4744 36.3941 27.581V27.7782L36.3288 27.8547V28.0702L36.3985 28.1467V28.29L36.3244 28.3708V28.513L36.271 28.5669C36.2617 28.5878 36.2555 28.6099 36.2525 28.6326C36.2525 28.7167 36.2525 28.8018 36.2525 28.8794L36.319 28.9451V31.0698L36.2536 31.1711C36.2416 31.2335 36.2896 31.2594 36.3244 31.2971V31.6581L36.4007 31.741V32.1785C36.3059 32.2248 36.3549 32.3595 36.2471 32.3939L36.3135 32.4597C36.3348 32.5398 36.3348 32.6241 36.3135 32.7042L36.2558 32.7613V33.2774L36.3233 33.3539V33.4929L36.3996 33.5748V33.7903L36.3277 33.8679L36.3854 33.9239C36.4453 34.079 36.3211 34.1782 36.2558 34.343V34.5229L36.3233 34.5994V35.1845L36.2514 35.261V35.9193L36.1992 35.971C36.1889 35.9914 36.1819 36.0132 36.1785 36.0357C36.1785 36.2425 36.1785 36.4505 36.1785 36.6552C36.2776 36.6929 36.2231 36.8222 36.3146 36.8599C36.3188 36.9523 36.3469 37.0421 36.3963 37.1206C36.4235 37.1659 36.3963 37.2402 36.3963 37.306L36.4693 37.3868V37.6022L36.5455 37.6831V38.0462L36.6218 38.128V38.2703L36.6849 38.3327V38.8521L36.6261 38.9275V39.5944L36.6893 39.6569V39.8789L36.6207 39.9554V40.5135L36.3985 40.9369V41.1341L36.0292 41.5004C36.0301 41.5273 36.0268 41.5542 36.0194 41.5801C36.0096 41.6017 35.9868 41.6157 35.9563 41.6459V42.0143C35.8299 42.079 35.7025 42.1081 35.611 42.2029C35.5195 42.2977 35.4204 42.3936 35.33 42.4841C35.1905 42.4841 35.1328 42.5918 35.0696 42.6737C35.0065 42.7556 34.8757 42.7664 34.806 42.8526H34.513L34.4303 42.928H34.2865C34.2582 42.9539 34.2309 42.9786 34.2091 42.997H33.7615C33.7037 42.8989 33.6133 42.9366 33.5436 42.9258L33.4794 42.9894C33.4692 42.9949 33.4581 42.9986 33.4467 43.0002H32.2921L32.2082 42.9302H32.0699L31.986 42.8547H31.7682L31.6854 42.7793H31.5427L31.4621 42.7071H31.1223C31.0569 42.6899 31.0134 42.6328 30.9393 42.6145C30.8892 42.6015 30.8358 42.5735 30.7792 42.5563C30.6201 42.5089 30.4579 42.4421 30.3979 42.2762C30.3653 42.1856 30.289 42.1501 30.2433 42.0811V42.0143L29.8762 41.6502C29.9241 41.55 29.7499 41.5263 29.7978 41.4261C29.7531 41.383 29.7096 41.3399 29.666 41.2957C29.6597 41.2864 29.6549 41.2762 29.6518 41.2655C29.6464 41.2181 29.6595 41.1395 29.6377 41.1287C29.544 41.0845 29.6235 40.9434 29.5059 40.9348V40.5566L29.4296 40.4736V39.7399L29.2837 39.6052C29.2728 39.4339 29.2837 39.2529 29.2782 39.0783L29.2074 39.0083V38.5666L29.1366 38.4965V38.127L29.2031 38.0505V37.9072C29.1835 37.8845 29.1584 37.8587 29.1323 37.8307V37.6152L29.068 37.5559V37.2585L28.9928 37.1853V36.8771L29.0549 36.8028C29.0691 36.7338 29.0277 36.7047 28.9798 36.6595V35.9915L28.9122 35.9236V34.8225L28.983 34.746V34.6005L29.1236 34.4648V34.2363L29.0647 34.1599V33.2009L29.1366 33.1298V32.8368L29.2042 32.77V32.4036C29.1878 32.3638 29.1214 32.3508 29.1323 32.2905C29.1214 32.2291 29.1889 32.2172 29.2042 32.1774V31.8865L29.1486 31.8315C29.0495 31.6915 29.2641 31.5999 29.1791 31.4361L28.9863 31.2616V30.7131L28.9319 30.6593C28.8948 30.6065 28.9177 30.5461 28.9177 30.488L28.9787 30.4287V29.7973L29.1214 29.5409C29.0571 29.4849 29.0735 29.3707 28.9874 29.3179V29.1735C29.0168 29.1358 29.0636 29.1142 29.0636 29.055C29.0636 29.0248 29.0963 28.9946 29.1181 28.958C29.1181 28.9505 29.1105 28.9246 29.0974 28.9181C28.9885 28.8643 29.0005 28.7296 28.9133 28.6606V27.4905L28.8469 27.4205C28.824 27.3074 28.8469 27.1749 28.836 27.0434L28.7042 26.913C28.6661 26.8441 28.7293 26.7385 28.6138 26.6846V26.2364L28.5452 26.1685V25.4413L28.4689 25.3583V25.1428L28.5408 25.0652V24.9198C28.5212 24.9015 28.4962 24.8864 28.4875 24.8659C28.4537 24.7819 28.4809 24.6806 28.397 24.6073C28.3731 24.5847 28.397 24.5136 28.397 24.464V23.9889C28.3524 23.9081 28.3066 23.8283 28.2511 23.7292V22.9438L28.1748 22.8619V22.7186L28.1019 22.6421V22.4945L28.1574 22.4395C28.1816 22.3601 28.1846 22.2759 28.1661 22.195L28.0311 22.0614V21.9159L28.0975 21.8254C28.1106 21.7457 28.0539 21.7273 28.0267 21.6886V21.5431L27.9494 21.4623V20.9527C27.9298 20.9333 27.8982 20.916 27.8971 20.8988C27.8971 20.7458 27.7805 20.6208 27.8001 20.4592C27.8088 20.3067 27.8088 20.1538 27.8001 20.0013L27.871 19.9323V19.2859C27.9526 19.2234 27.9319 19.1027 28.0224 19.051V18.6847C27.9385 18.6125 27.9287 18.5015 27.872 18.4132L27.9494 18.2979C27.9385 18.2063 27.8241 18.1438 27.8764 18.0328L27.8023 17.9499V17.7344C27.8818 17.6913 27.872 17.5932 27.9243 17.5286C27.9766 17.4639 27.9243 17.3357 28.0234 17.2765V17.0933C28.067 17.0125 28.1117 16.9328 28.1683 16.8315V16.4856L28.0986 16.4102V16.2637L28.1705 16.1872V15.3091C28.0616 15.2649 28.14 15.1108 28.0256 15.0936C28.0191 15.0343 28.0256 14.9999 28.0605 14.9772C28.0953 14.9546 28.0997 14.8921 28.0964 14.8458C28.0931 14.7994 28.1335 14.7607 28.1683 14.723V14.4407C28.2533 14.3825 28.2326 14.2597 28.3197 14.2069C28.2805 14.0991 28.3949 14.028 28.3862 13.944C28.3763 13.8362 28.4809 13.7845 28.4733 13.68C28.4668 13.5916 28.5419 13.513 28.5887 13.4376C28.6356 13.3622 28.604 13.3212 28.6192 13.2576L28.7641 13.1068V12.9991C28.8088 12.8774 28.8837 12.7688 28.982 12.6834V12.4679C29.068 12.4065 29.031 12.2761 29.1355 12.2438V12.0854C29.1606 12.0574 29.1856 12.0315 29.2118 12.0035V11.8645L29.2891 11.7762C29.2456 11.6523 29.3403 11.5521 29.3512 11.4411C29.3621 11.3301 29.483 11.2601 29.4351 11.1491L29.7891 10.8H29.8392L30.2749 10.3593H30.4023C30.5173 10.306 30.625 10.2383 30.7225 10.1579C30.8263 10.09 30.9383 10.0354 31.0558 9.99517H31.2998C31.3521 9.97578 31.3652 9.90898 31.4262 9.91975C31.4883 9.90898 31.5002 9.97578 31.5656 9.99948L31.9076 9.82817L32.0035 9.99086H32.2039L32.2812 9.91868H32.5808C32.6189 9.82925 32.742 9.87019 32.7932 9.77645H33.096L33.1657 9.70642H33.5513C33.5752 9.7312 33.5926 9.74844 33.6144 9.76891L33.6939 9.70103H33.9118L33.9902 9.77322H34.2081C34.314 9.8564 34.4417 9.90798 34.5762 9.92191C34.6487 10.0068 34.7421 10.0717 34.8474 10.1105C34.9444 10.1439 35.0195 10.2311 35.1383 10.2182C35.2101 10.2085 35.2417 10.3259 35.3267 10.2958C35.3703 10.3507 35.4476 10.3798 35.4356 10.4736C35.4356 10.5026 35.4879 10.5145 35.5249 10.508C35.7744 10.6869 35.7493 10.7591 35.9759 11.0866C36.007 11.1516 36.0255 11.2217 36.0303 11.2935C36.1393 11.3474 36.1534 11.4842 36.2482 11.5736V11.7826C36.2732 11.8117 36.2983 11.8376 36.3244 11.8678V12.4442L36.5477 12.6888C36.5281 12.7609 36.6283 12.7868 36.6185 12.8407C36.5967 12.9667 36.7427 13.0497 36.6958 13.1801L36.7699 13.2609V13.4764L36.8451 13.5572V13.7446C36.8746 13.8169 36.9111 13.8861 36.954 13.9515C37.0272 14.034 37.105 14.1124 37.1871 14.1864C37.296 14.2941 37.3962 14.3943 37.4735 14.4698C37.5378 14.5937 37.5934 14.6852 37.6304 14.7747C37.6611 14.8638 37.7166 14.9426 37.7905 15.002C37.8994 15.0839 37.8994 15.2434 38.028 15.3015V15.5256C38.1293 15.642 38.1554 15.7982 38.2523 15.9135V16.0967C38.2624 16.1172 38.2744 16.1367 38.2883 16.1549C38.3395 16.2087 38.3972 16.2626 38.4451 16.3111C38.4538 16.3197 38.4713 16.3294 38.4702 16.3369C38.4582 16.4555 38.5987 16.4835 38.6161 16.5697C38.6303 16.6354 38.6924 16.6688 38.6935 16.7216C38.6935 16.8293 38.822 16.8498 38.8307 16.9209C38.8394 16.992 38.9135 17.0351 38.92 17.1073C38.9288 17.2021 39.029 17.2291 39.0682 17.3034C39.0682 17.3271 39.0682 17.3519 39.0682 17.3767C39.0682 17.4015 39.0682 17.4392 39.0758 17.4445C39.1847 17.5006 39.1117 17.6234 39.1771 17.6999C39.2298 17.76 39.2671 17.8316 39.286 17.9089C39.3067 18.0059 39.4233 18.0307 39.4331 18.105C39.441 18.1461 39.4577 18.1851 39.4821 18.2193C39.5066 18.2535 39.5381 18.2821 39.5747 18.3033C39.6476 18.3593 39.6389 18.4584 39.7043 18.508C39.7696 18.5575 39.7882 18.6502 39.8393 18.7084C39.8905 18.7666 39.8786 18.8387 39.9341 18.8948C39.9897 18.9508 39.9766 19.0284 40.043 19.0661C40.1095 19.1038 40.0844 19.2008 40.152 19.2439C40.189 19.2686 40.1814 19.3053 40.1824 19.3516C40.3731 19.4744 40.4286 19.7222 40.6258 19.8494V20.0347L40.8501 20.2125V20.3762C40.8883 20.414 40.97 20.4581 40.983 20.5163C41.0094 20.5949 41.0572 20.6646 41.1214 20.7178C41.1682 20.7695 41.1323 20.8676 41.2237 20.8837V21.11C41.2499 21.152 41.288 21.1455 41.3229 21.1455C41.4465 21.2379 41.5401 21.3642 41.5919 21.5086C41.5549 21.6034 41.6431 21.6595 41.6681 21.7338C41.7006 21.846 41.7639 21.9471 41.8511 22.0258H41.9056C42.0287 22.1475 42.142 22.2585 42.2585 22.3749V22.4826C42.289 22.5634 42.3674 22.6076 42.4241 22.669C42.4807 22.7304 42.545 22.7908 42.6038 22.849L42.8042 23.267L43.2094 23.6678C43.2492 23.8009 43.321 23.9225 43.4185 24.0223C43.5373 24.1225 43.5569 24.3035 43.7388 24.3821C43.7987 24.3918 43.8324 24.3153 43.888 24.2744V23.1657L43.9435 23.1054C43.9893 23.0332 43.9533 22.9459 43.9653 22.8662L44.0361 22.7908V22.6432L43.9729 22.5796V21.6939L44.0329 21.6174V20.971L44.1091 20.8794V20.6639L44.0405 20.5874V20.4441L44.1135 20.3655V19.6339L44.1788 19.5692C44.2039 19.4033 44.1723 19.2212 44.193 19.0424L44.2529 18.982V17.9693C44.2779 17.9391 44.2997 17.9111 44.3367 17.8615V17.5038L44.4054 17.4359V16.6279L44.3378 16.5524C44.3378 16.5427 44.3313 16.5287 44.3378 16.519C44.3836 16.4275 44.4304 16.3359 44.4892 16.2217V15.7422L44.5524 15.6797V15.1001L44.4805 14.9923L44.633 14.7046V14.0668C44.6504 14.0485 44.6679 14.0312 44.6842 14.0129C44.7006 13.9946 44.7071 13.9957 44.7071 13.986C44.7071 13.8405 44.7071 13.694 44.7071 13.555L44.7626 13.5011C44.7986 13.4333 44.7735 13.3589 44.7822 13.2738L44.8476 13.1876V13.0314L44.7866 12.97V12.7459L44.853 12.6694V12.5315L44.9293 12.4485V12.3052L45.0055 12.2244V12.0811L45.0328 12.0541C45.0415 12.0455 45.0545 12.038 45.0589 12.0272C45.0894 11.9421 45.0589 11.8365 45.1515 11.7719V11.5068L45.2212 11.4228V11.2234C45.2506 11.1771 45.2931 11.1394 45.2964 11.0995C45.2964 11.0392 45.3508 11.023 45.3737 10.9735V10.8356L45.4434 10.7688C45.4434 10.7278 45.4488 10.6696 45.4521 10.6169C45.4772 10.5856 45.5251 10.5501 45.5186 10.5317C45.4804 10.424 45.5796 10.3583 45.5992 10.2678C45.6231 10.16 45.7429 10.16 45.817 10.1061C45.8444 10.0827 45.8706 10.0579 45.8954 10.0318V9.88204L45.8399 9.82817C45.8156 9.74929 45.8107 9.66579 45.8257 9.58467C45.8747 9.52434 45.9423 9.56959 46.0283 9.53295L46.1895 9.35195L46.0447 9.25067V9.00178L46.1536 8.89404H46.3017C46.3475 8.91774 46.3703 9.00178 46.4749 8.94252L46.5609 8.85525V8.72165L46.6851 8.59343C46.7853 8.64623 46.8953 8.65808 46.9694 8.7432H47.3408L47.4182 8.67209H47.5652C47.6066 8.62791 47.6458 8.5805 47.7177 8.59451L47.8549 8.45875H48.6838L48.7568 8.53094H49.1272L49.1947 8.59774H49.4877L49.5694 8.67316H49.7142L49.797 8.74858H50.1412L50.4026 8.89296C50.5116 8.84124 50.578 8.94791 50.6662 8.97377C50.7545 8.99963 50.7926 9.08151 50.8558 9.13969C50.8732 9.15585 50.8917 9.17094 50.9102 9.18602H50.9832C51.03 9.23774 51.0082 9.32932 51.0867 9.3638C51.079 9.46508 51.1466 9.51141 51.2261 9.54696C51.2468 9.55666 51.2806 9.55343 51.2904 9.56743C51.3535 9.66225 51.4679 9.68164 51.5496 9.74844C51.5905 9.77952 51.6271 9.81574 51.6585 9.85618C51.6836 9.89282 51.689 9.94238 51.7141 9.97901C51.745 10.0181 51.7797 10.0542 51.8175 10.0868C51.8731 10.1783 51.7761 10.3098 51.896 10.3852C51.9177 10.4653 51.9177 10.5497 51.896 10.6298L51.8099 10.702ZM81.1275 8.6139C81.0872 8.58589 81.061 8.54818 81.0817 8.45768L81.2898 8.28529V8.04179C81.2516 8.00408 81.2092 7.97606 81.2233 7.90603L81.2909 7.8263V7.39533L81.3671 7.30913V7.09365L81.4423 7.01284V6.83075L81.2898 6.73163V6.35129C81.2244 6.29204 81.171 6.21015 81.097 6.18321C81.0358 6.16301 80.9805 6.1286 80.9355 6.08285C80.8906 6.03711 80.8575 5.98137 80.8388 5.92032C80.8098 5.86869 80.7619 5.8301 80.7048 5.81258C80.5556 5.75547 80.4151 5.67574 80.2441 5.59063H80.0208C79.9337 5.5337 79.841 5.48569 79.7442 5.44733C79.6505 5.42362 79.6222 5.30834 79.547 5.30295C79.4294 5.29433 79.4032 5.17797 79.3117 5.14996C79.2409 5.14996 79.1614 5.16719 79.1102 5.0713H78.7334L78.668 5.00666C78.5851 4.99253 78.5 4.99807 78.4197 5.02282L78.3674 5.07669H78.1495L78.0678 5.15211H77.5537L77.2618 5.43979H77.1801L77.0821 5.54753C77.0601 5.69762 76.9929 5.83767 76.8893 5.94941H76.5854L76.4765 6.06577V6.20369L76.4002 6.29527V6.65729C76.3305 6.84799 76.1508 6.94711 76.031 7.09688V7.31236C75.9613 7.37823 75.9041 7.45596 75.8622 7.54186C75.8251 7.62159 75.726 7.67331 75.6301 7.75734L75.8066 7.87586V8.15384L75.6432 8.36933C75.5539 8.38549 75.4864 8.34886 75.4417 8.4135V8.53633L75.213 8.9673V9.15262L75.0725 9.29161V9.36057L74.9962 9.44245V9.80662L74.6248 10.173V10.243C74.5987 10.2699 74.5736 10.2969 74.5486 10.3249V10.4617C74.42 10.6115 74.3993 10.8 74.3307 10.9659C74.3176 10.9972 74.3307 11.0543 74.3122 11.0661C74.2327 11.1157 74.2752 11.2353 74.1826 11.273V11.6372C74.0802 11.7374 74.0562 11.8818 73.98 11.997C73.9386 12.0574 73.9571 12.1565 73.9495 12.2319L73.8776 12.3224V12.6004L73.8035 12.6726V12.9657C73.773 12.9958 73.7556 13.0141 73.7371 13.0314V13.1391L73.5846 13.2469V13.6347C73.4179 13.7285 73.4081 13.9289 73.2927 14.0657V14.2058L73.3635 14.2834C73.0269 14.7941 73.1119 14.6486 73.0476 14.89L72.9953 14.9417V15.3802L72.9191 15.461V15.7508L72.8559 15.8133V16.1936L72.9158 16.268L72.8428 16.3391V16.6376C72.6784 16.755 72.6642 16.9489 72.5455 17.0868V17.367L72.4758 17.4359V17.8798L72.3973 17.9585V18.2515L72.3276 18.3194C72.3254 18.3553 72.3254 18.3913 72.3276 18.4272C72.3353 18.4875 72.2514 18.5112 72.2579 18.5425C72.2753 18.6308 72.1588 18.6588 72.1806 18.7321C72.2111 18.8301 72.1022 18.8743 72.1032 18.9594C72.1086 18.9827 72.1085 19.0068 72.1028 19.03C72.0971 19.0532 72.0861 19.0748 72.0706 19.093C72.0477 19.1135 72.0466 19.1555 72.0292 19.1846C72.0117 19.2137 71.9769 19.26 71.9562 19.2923V19.6382C71.8669 19.7125 71.8919 19.8224 71.8081 19.8645V20.0088L71.8832 20.0907C71.8702 20.1478 71.9105 20.2168 71.8495 20.261C71.7601 20.3245 71.8625 20.4624 71.7405 20.512C71.7405 20.5713 71.7307 20.6316 71.7296 20.6909C71.7296 20.8374 71.7296 20.9839 71.7296 21.1304C71.7275 21.1535 71.7228 21.1763 71.7155 21.1983L71.5837 21.3287V21.3987L71.4301 21.5582V21.8502C71.4028 21.8648 71.3811 21.8879 71.3685 21.916C71.3559 21.9441 71.3531 21.9755 71.3604 22.0053C71.3767 22.0786 71.2972 22.1012 71.2776 22.1906V22.5139L71.2144 22.5764V22.7175L71.1382 22.8005V23.1625L71.0619 23.2444V23.4599C71.0358 23.489 71.0108 23.5148 70.9857 23.5439V23.8262L70.9203 23.9038L70.9029 24.1322C70.794 24.2022 70.855 24.3089 70.8387 24.3994C70.8387 24.4188 70.8114 24.4339 70.7962 24.4511C70.7613 24.4511 70.7221 24.4586 70.6982 24.4188C70.6982 24.3617 70.6883 24.3046 70.6851 24.2604L70.6186 24.1947V23.9038C70.5337 23.8607 70.5576 23.754 70.4901 23.698C70.4226 23.6419 70.4988 23.5622 70.4389 23.4986C70.3889 23.4287 70.3469 23.3536 70.3137 23.2745V23.086L70.1688 22.9427C70.208 22.8694 70.1296 22.8436 70.0969 22.7929V22.6055C70.0424 22.5505 69.964 22.4751 69.8791 22.39C69.8602 22.2715 69.8102 22.1601 69.7342 22.0667V21.7748C69.7047 21.7562 69.6818 21.729 69.6687 21.6969C69.6556 21.6648 69.653 21.6295 69.6612 21.5959L69.5044 21.4882C69.5174 21.388 69.5207 21.3158 69.4455 21.2727C69.4684 21.18 69.3366 21.1412 69.3628 21.0496C69.2963 21.0076 69.2974 20.93 69.2626 20.8708C69.2277 20.8115 69.183 20.7318 69.1362 20.6488V20.3051L68.9804 20.1424V19.8451C68.816 19.7276 68.8029 19.5326 68.6929 19.4055C68.6929 19.3279 68.6842 19.2557 68.6798 19.1835C68.5861 19.1264 68.621 19.0348 68.6145 18.954C68.6108 18.9286 68.6057 18.9035 68.5992 18.8786L68.3923 18.6804V18.606L68.1069 18.3248C68.1033 18.2871 68.0922 18.2505 68.0742 18.2171C68.0404 18.1794 68.0089 18.146 68.0241 18.0889L68.0938 18.0124C68.0067 17.9585 68.0197 17.8421 67.9424 17.7742V17.5663C67.8444 17.5264 67.8999 17.3961 67.8052 17.3605C67.8139 17.2452 67.705 17.2054 67.6505 17.131C67.6864 17.0362 67.535 17.0039 67.5753 16.9037C67.5873 16.8724 67.5645 16.8401 67.5459 16.8067C67.4512 16.6322 67.3771 16.4447 67.2072 16.3348C67.2072 16.2992 67.2072 16.2755 67.2072 16.2206L67.0667 16.1215C67.0667 16.0428 67.0601 15.9954 67.058 15.9351C66.9142 15.9049 66.9371 15.7433 66.8401 15.6679C66.8401 15.5084 66.6658 15.4782 66.6223 15.3554C66.6223 15.3457 66.6223 15.3274 66.6223 15.3198C66.5471 15.2304 66.5232 15.113 66.4306 15.0289C66.3719 14.9462 66.3274 14.8545 66.2988 14.7574C66.1997 14.6615 66.0809 14.5419 65.9546 14.4202V14.014C65.8914 13.8923 65.8456 13.791 65.7868 13.6908L64.7847 12.7082C64.7129 12.734 64.6889 12.6532 64.6235 12.6284H64.4449C64.336 12.5735 64.2587 12.5293 64.1781 12.4862H63.9918L63.8959 12.5562C63.8132 12.5692 63.7979 12.4959 63.7565 12.4894C63.6228 12.4561 63.4962 12.3992 63.3829 12.3214C63.274 12.261 63.152 12.2201 63.0442 12.1522C62.9363 12.0843 62.7926 12.0445 62.676 11.9701C62.5626 11.8911 62.4444 11.8192 62.322 11.7546H61.9146C61.9048 11.7546 61.895 11.7428 61.8852 11.7363L61.8319 11.6835H61.7578L61.6805 11.7546H61.4626L61.3787 11.6792H61.0857L61.0226 11.6156H60.4878L60.4191 11.6835H59.9007C59.8691 11.7137 59.8517 11.7309 59.8277 11.7557H58.6884C58.6655 11.7526 58.6431 11.7465 58.6219 11.7374L58.5686 11.6846H58.4215C58.379 11.7363 58.2941 11.7632 58.3126 11.8602L58.3747 11.9313L58.2864 12.0401L58.1154 12.0498C58.0348 12.1285 57.9618 12.1942 57.8976 12.2653C57.8333 12.3364 57.6906 12.3386 57.6394 12.4463V12.5907L57.7113 12.6672V12.9236L57.5686 13.0174C57.5686 13.1003 57.5621 13.1477 57.5599 13.2027C57.5229 13.2038 57.4861 13.2103 57.451 13.2221C57.4201 13.2422 57.3923 13.2665 57.3682 13.2943H57.158L57.0491 13.402V13.8427L56.9728 13.9246V14.1088C56.8704 14.3049 56.7811 14.4773 56.6798 14.6702V15.1561C56.6561 15.1742 56.6365 15.1971 56.6225 15.2233C56.6084 15.2495 56.6001 15.2784 56.5981 15.308C56.5981 15.3446 56.5219 15.3651 56.5295 15.4254C56.5332 15.4548 56.5304 15.4845 56.5212 15.5127C56.5119 15.5408 56.4966 15.5665 56.4762 15.5881C56.4446 15.6269 56.4653 15.7045 56.4424 15.7551C56.4195 15.8058 56.3759 15.8209 56.3814 15.878C56.3868 15.9351 56.3814 15.9954 56.3814 16.0396L56.3106 16.1096V16.4705L56.2333 16.5546V16.7701L56.1603 16.8498V17.0653L56.2289 17.1418V17.3756C56.12 17.4198 56.1603 17.5092 56.1701 17.5911C56.1842 17.6212 56.2333 17.6277 56.218 17.6719L56.1614 17.7268V17.9359C56.0633 18.0587 56.0317 18.2106 55.9326 18.3313V18.9066L55.8695 18.9691V19.5703C55.9 19.6016 55.9272 19.6264 55.9522 19.6533C55.9773 19.6802 55.9958 19.7072 56.0067 19.7212C56.0209 19.7998 55.9653 19.8192 55.937 19.8569V20.4409C55.9108 20.4689 55.8858 20.4948 55.8607 20.5228V21.0292L55.7845 21.1143V21.5453L55.7148 21.6142V22.2747L55.5634 22.4191C55.5557 22.5238 55.5557 22.6289 55.5634 22.7337L55.7039 22.8576V23.2293L55.6276 23.3144V23.8951C55.5318 23.9555 55.5536 24.0395 55.5699 24.1225L55.7082 24.2582C55.6799 24.3272 55.7377 24.366 55.7801 24.4026C55.6886 24.4543 55.7093 24.5761 55.6276 24.6386V24.9209L55.571 24.9769C55.522 25.062 55.6102 25.1719 55.5187 25.2495C55.4272 25.3271 55.5329 25.451 55.4098 25.4984V25.7139C55.4915 25.7677 55.4708 25.8852 55.5438 25.9369L55.4 26.1912V26.7547C55.3553 26.7902 55.3216 26.8247 55.3346 26.8829C55.4076 26.9335 55.5067 26.9529 55.5525 27.0391V27.1845L55.4817 27.26V27.4043L55.5481 27.4808V27.7136C55.4392 27.7653 55.4773 27.8504 55.4937 27.9291L55.6266 28.0594V28.206L55.5547 28.2825V28.5734L55.6244 28.6499V28.944L55.559 29.0086C55.559 29.0808 55.5525 29.1627 55.5492 29.2327L55.4871 29.3103V29.9018L55.6266 30.0408V30.1863L55.5634 30.2703V30.5591L55.4937 30.6356V30.7799L55.5568 30.8554L55.498 30.9297V32.2636C55.5334 32.2886 55.558 32.3259 55.5667 32.3681C55.5753 32.4103 55.5676 32.4542 55.5449 32.4909L55.4926 32.5426L55.5634 32.6202V32.8465C55.4414 32.9122 55.4174 33.0512 55.3455 33.1428V33.6104C55.4545 33.7181 55.5786 33.842 55.7028 33.9638V34.0887C55.6527 34.1383 55.5884 34.1749 55.571 34.2267C55.5608 34.2841 55.5308 34.3363 55.486 34.3743L55.5612 34.4561V34.5962L55.6385 34.6813V34.9615L55.7355 35.0056C55.815 35.1446 55.7769 35.2028 55.7104 35.2534V35.3407C55.718 35.4485 55.7965 35.4485 55.7823 35.512C55.7932 35.5745 55.7268 35.5864 55.7061 35.637V35.7695L55.6298 35.8557V36.2867L55.5667 36.3492V37.0043C55.6451 37.1217 55.6679 37.2489 55.7845 37.3016V37.6744C55.7594 37.7025 55.7344 37.7283 55.7126 37.7509V38.6646L55.8629 38.7659C55.8466 38.8941 55.7148 38.9706 55.803 39.0891L55.8564 39.1419V39.2895L55.7845 39.366V39.5362C55.8934 39.5115 55.9501 39.5923 56.0023 39.6677C56.0132 39.7259 55.9893 39.783 56.0372 39.8401C56.0886 39.901 56.1258 39.9723 56.1461 40.0491C56.168 40.1182 56.2144 40.1772 56.2768 40.215C56.3465 40.2711 56.3531 40.3616 56.4075 40.4187C56.5394 40.5646 56.6798 40.7027 56.828 40.8324C56.9124 40.8905 57.0054 40.9356 57.1035 40.966C57.1249 40.9796 57.1443 40.9959 57.1613 41.0145H57.4586C57.5066 41.105 57.6231 41.091 57.6961 41.1653H58.049L58.1122 41.2289H58.8452L58.9324 41.3043H59.0739C59.1023 41.3291 59.1284 41.3539 59.1556 41.3797H59.3735L59.4443 41.4422L59.7046 41.2989H59.9018L59.9649 41.2364H60.5597L60.637 41.3043H60.7917L60.8733 41.3787H61.1685L61.3526 41.1966V41.049L61.54 40.868C61.6184 40.8539 61.7055 40.8863 61.7905 40.841L61.834 40.7915H61.9833C62.0225 40.7634 62.0421 40.7128 62.1031 40.7182C62.1641 40.7236 62.1848 40.6374 62.2588 40.6406C62.2959 40.6406 62.334 40.5878 62.3765 40.5749C62.419 40.562 62.4996 40.5975 62.5377 40.5329V40.3982L62.4701 40.3217V40.0997L62.7621 39.811V39.7313L63.018 39.616L63.4319 39.2076V38.9318L63.5093 38.8435V38.1194L63.579 38.0494V37.766L63.652 37.6701V37.474C63.6748 37.4223 63.7543 37.3975 63.726 37.32L63.653 37.2424V36.7996C63.6814 36.7619 63.7369 36.7414 63.7228 36.6638C63.7064 36.639 63.6792 36.6024 63.6574 36.5722V35.4011L63.7151 35.344C63.7358 35.2633 63.7358 35.1789 63.7151 35.0983L63.6585 35.0423V34.6749L63.7282 34.5962C63.7282 34.5531 63.7489 34.4809 63.7282 34.4605C63.6509 34.3947 63.6661 34.2805 63.5801 34.2223V33.4294C63.5526 33.402 63.5295 33.3708 63.5114 33.3367C63.4984 33.2914 63.5114 33.2365 63.4951 33.1966C63.4788 33.1568 63.4374 33.1298 63.4308 33.0749C63.4243 33.0199 63.3818 32.9995 63.3611 32.9671C63.3611 32.5275 63.3611 32.0998 63.3611 31.6742C63.3611 31.6645 63.3492 31.6548 63.3045 31.5869C63.299 31.5783 63.2609 31.5083 63.2217 31.4383L63.2849 31.3682V31.073C63.1901 31.0137 63.2097 30.9297 63.225 30.8467L63.3622 30.7099C63.3622 30.5343 63.3622 30.3522 63.3622 30.1712C63.3591 30.1489 63.3529 30.1271 63.3437 30.1065L63.2914 30.0548C63.2816 29.9471 63.298 29.8393 63.2914 29.7585L63.2206 29.6842V29.3179C63.3056 29.2457 63.3165 29.1358 63.3677 29.0474L63.286 28.9192V27.33L63.225 27.2697C63.2087 27.1888 63.2129 27.1051 63.237 27.0262L63.2914 26.9723L63.2184 26.8926V26.607L63.1487 26.5305V26.0888L63.2969 25.9433V25.2861C63.3067 25.2715 63.321 25.2604 63.3376 25.2542C63.3542 25.248 63.3723 25.2471 63.3895 25.2516L63.5899 25.4294C63.5899 25.4607 63.5899 25.4854 63.5899 25.5091L63.8851 25.8C63.8578 25.8679 63.9145 25.9078 63.9569 25.9455V26.2386C64.0452 26.2784 64.0136 26.3905 64.0855 26.4444C64.1073 26.4605 64.1062 26.5079 64.1138 26.5359C64.1846 26.6221 64.275 26.6868 64.3316 26.7568V26.9604L64.6029 27.2287H64.666L64.849 27.4173V27.6047L65.0778 28.0357V28.2232C65.1536 28.2987 65.2184 28.3843 65.2705 28.4775C65.3576 28.5805 65.4523 28.677 65.5537 28.7662C65.5685 28.7839 65.5812 28.803 65.5919 28.8233V29.0291C65.7095 29.0431 65.6322 29.1983 65.7389 29.2446V29.4666L66.021 29.7359C66.1245 29.9934 66.1245 29.9934 66.4654 30.3307C66.4933 30.4194 66.5321 30.5044 66.5809 30.5839C66.6321 30.6496 66.6343 30.7347 66.704 30.7993C66.7662 30.8718 66.8183 30.9522 66.8586 31.0385V31.3133C66.949 31.3822 66.9327 31.5234 67.0765 31.5675H67.1963C67.2073 31.6131 67.2261 31.6565 67.2518 31.6958C67.2878 31.7345 67.2812 31.7927 67.3052 31.8197C67.3631 31.9051 67.4106 31.9969 67.4468 32.0933C67.4828 32.1773 67.5321 32.2552 67.5928 32.3239C67.6766 32.3993 67.6636 32.5265 67.7703 32.5868C67.8128 32.6105 67.8161 32.6945 67.8542 32.7323C67.8923 32.77 67.8782 32.8454 67.8934 32.9003C67.901 32.9327 67.9326 32.9585 67.9653 33.0081C67.9653 33.146 67.9653 33.3044 67.9653 33.4617C67.97 33.4907 67.9777 33.5192 67.9882 33.5468L68.1897 33.73V33.9207L68.45 34.2105H68.5959C68.6362 34.2504 68.6722 34.2838 68.7049 34.3182V34.565L68.8574 34.6803C68.8203 34.8246 68.9478 34.9119 68.9314 35.0369C68.9238 35.0875 69.0218 35.1166 69.0011 35.1899L69.219 35.4248C69.2473 35.5045 69.1623 35.526 69.1515 35.5637V36.2102C69.2179 36.3557 69.3824 36.3298 69.4412 36.4516V36.8211C69.5555 36.8761 69.5664 37.015 69.6514 37.0937C69.7364 37.1724 69.7603 37.3394 69.8845 37.3965C69.8965 37.4708 69.8616 37.5505 69.9379 37.6012C70.005 37.7901 70.1224 37.9576 70.2777 38.086C70.388 38.1844 70.4931 38.2883 70.5925 38.3974C70.6998 38.5048 70.8323 38.5843 70.9781 38.629L71.466 39.1053H72.1871L72.4518 39.2572H73.1729L73.2502 39.3251H74.066C74.2839 39.1828 74.2839 39.1828 74.3558 39.0385H74.4952C74.5507 39.0083 74.5791 38.9307 74.6542 38.962L74.9407 38.6775C75.0561 38.6775 75.1041 38.5827 75.1759 38.5224H75.2457L75.5103 38.2649V38.0171L75.653 37.9093V37.5236L75.5975 37.4676C75.5256 37.3275 75.7064 37.2316 75.6454 37.0635L75.9602 36.8093V36.1283C76.0386 36.0637 76.0473 35.9721 76.0887 35.901L76.0299 35.8417V35.4765L76.1051 35.3957V35.2534C76.1486 35.2103 76.2053 35.1748 76.1737 35.1091L76.1029 35.025C76.1122 34.9376 76.1122 34.8495 76.1029 34.7621C76.0778 34.6544 76.2238 34.6048 76.1802 34.4982C76.2303 34.4108 76.2607 34.3138 76.2695 34.2137L76.3283 34.1545V33.8636L76.4024 33.7849C76.4024 33.759 76.4024 33.7343 76.4079 33.6772L76.5571 33.5694V33.1255L76.629 33.0544V32.7484C76.6538 32.7396 76.6745 32.7222 76.6873 32.6994C76.7002 32.6766 76.7042 32.65 76.6987 32.6245L76.8501 32.4672V32.1623C77.0015 32.1321 76.8501 31.9468 76.983 31.8994L77.0048 31.6645L77.0701 31.5794V31.3542L77.2956 31.1775V30.8403C77.4459 30.8177 77.3348 30.683 77.3969 30.6C77.5058 30.4578 77.4067 30.2768 77.4546 30.1119L77.52 30.0473V29.6077L77.5875 29.5409V28.5917C77.6746 28.5357 77.6517 28.4128 77.74 28.3579V28.0691L77.8086 28.0023V27.6349L77.874 27.5703C77.8903 27.3365 77.8903 27.3365 78.0439 27.1016V26.7385L78.1092 26.6792V26.0931L78.1855 26.0101V25.4283L78.253 25.3615V24.9909L78.3325 24.9133V24.1807L78.4109 24.102V23.7357L78.4719 23.6753C78.4981 23.5676 78.4556 23.4545 78.4915 23.3575L78.5536 23.3026V22.5688L78.6244 22.4923V22.2715L78.5613 22.209V21.8933L78.851 21.6142V21.2479L78.924 21.1682C78.9182 21.1256 78.9224 21.0823 78.9362 21.0416C78.95 21.0009 78.973 20.9638 79.0035 20.9333V20.5766C79.0274 20.5651 79.0469 20.5461 79.0589 20.5225C79.0709 20.499 79.0748 20.4722 79.0699 20.4463L78.998 20.3622C78.998 20.1177 78.998 19.8623 78.998 19.608C79.0012 19.5857 79.0074 19.564 79.0166 19.5434L79.0699 19.4906V19.1264C79.0961 19.0995 79.1211 19.0726 79.1462 19.0445V18.8291L79.2224 18.745V18.314L79.2921 18.2462V17.7936C79.462 17.6859 79.4784 17.4941 79.5917 17.354V16.4792L79.6679 16.3951V15.9523C79.7845 15.8963 79.7932 15.7573 79.8945 15.6625V15.3716L79.9609 15.3058V15.0171L80.0372 14.9363V14.6303C80.1875 14.6087 80.0775 14.473 80.1374 14.3911C80.2463 14.2478 80.1504 14.0679 80.1951 13.903C80.2866 13.8653 80.2321 13.736 80.3269 13.6994C80.3421 13.5205 80.3204 13.3395 80.3367 13.1768L80.4053 13.1079V12.8159L80.4783 12.7383V12.5228L80.4238 12.469C80.4184 12.4593 80.4064 12.4496 80.4064 12.4399C80.4064 12.3429 80.4064 12.2459 80.4064 12.1576C80.4227 12.1414 80.4304 12.1317 80.4402 12.1242C80.524 12.0606 80.4325 11.9259 80.5491 11.871C80.5611 11.871 80.5589 11.8268 80.5589 11.8042C80.5589 11.7546 80.5589 11.7061 80.5589 11.6523C80.5796 11.6275 80.6025 11.6016 80.6308 11.5704V11.3549L80.707 11.2741V11.0586C80.7321 11.0306 80.7571 11.0047 80.7833 10.9767V10.7795L80.9227 10.5328V9.65363C80.8987 9.631 80.8813 9.61269 80.8595 9.59114V9.43922C80.8835 9.40366 80.951 9.37242 80.926 9.29377L80.8552 9.21942V9.00393C80.9597 8.88434 81.0981 8.78845 81.1275 8.6139ZM106 37.3383V37.5387L105.908 37.6367L105.74 37.6572C105.695 37.6809 105.713 37.7218 105.706 37.7649C105.547 37.8802 105.44 38.0591 105.255 38.1679C105.085 38.2793 104.905 38.3753 104.717 38.4545H104.533L104.407 38.6193L104.034 38.4319L103.842 38.6743C103.772 38.6743 103.733 38.6743 103.709 38.7109V39.0816L103.594 39.1753C103.471 39.1538 103.376 39.2917 103.229 39.2604L103.149 39.1893H102.714L102.631 39.1128H102.486L102.433 39.06C102.293 38.9695 102.195 39.1505 102.079 39.1182L101.861 39.3337H101.371L101.339 39.2981C101.313 39.2766 101.304 39.2626 101.294 39.2626H100.471C100.424 39.1387 100.277 39.1408 100.197 39.0525C100.116 38.9641 99.9558 38.9447 99.8697 38.865C99.7837 38.7853 99.6519 38.7637 99.5789 38.6635C99.5059 38.5633 99.3415 38.5913 99.311 38.4556H99.2282L98.9613 38.1981V38.1151C98.8393 38.0483 98.7947 37.8748 98.6237 37.8641L98.3089 37.5527C98.322 37.4525 98.2 37.4051 98.2152 37.2952C98.2239 37.209 98.1063 37.139 98.1466 37.0323C98.0562 36.9245 98.0268 36.7856 97.9287 36.6552V36.0766C97.8753 36.0356 97.8283 35.9869 97.7893 35.9322C97.7643 35.8805 97.7632 35.818 97.7044 35.7835V35.4872L97.3417 35.1446C97.3264 35.0433 97.3101 34.9582 97.4026 34.9011V34.6792L97.3318 34.6038L97.3863 34.5499C97.4107 34.471 97.4156 34.3875 97.4005 34.3064L97.2632 34.1706V33.8614C97.1609 33.7795 97.0454 33.6869 96.9604 33.6157V33.3809C96.8875 33.2828 96.8766 33.1363 96.7426 33.0824V32.7075L96.6663 32.6234V32.4252L96.5106 32.1494C96.5487 32.0653 96.6119 32.0018 96.5803 31.8692L96.4452 31.7841V31.532L96.369 31.449V31.3079L96.2927 31.226V31.1021L96.0324 30.8274L95.9638 30.8952H94.9258L94.8539 30.9663H94.3398L94.2504 31.0396L94.1731 30.975H94.0315L93.9498 30.8995H93.4324L93.3801 30.8478C93.3596 30.8376 93.3375 30.8307 93.3148 30.8274C93.1057 30.8274 92.8954 30.8274 92.6907 30.8274L92.6253 30.892H91.8629L91.7975 30.8274H91.0557L90.986 30.7584H90.6756L90.5885 30.8661C90.473 30.9437 90.5057 31.0321 90.436 31.0816C90.3902 31.1161 90.4578 31.2228 90.3804 31.2745C90.3281 31.31 90.3565 31.3822 90.3053 31.4296C90.2541 31.477 90.2584 31.5578 90.204 31.6053V31.8014L90.1364 31.8897V32.4554L90.0602 32.5491V32.7549L89.9839 32.8432V33.1277L89.9077 33.2106V33.3529L89.8315 33.4347V33.5748L89.7552 33.6599V33.9465C89.7247 33.9756 89.6997 34.0025 89.6724 34.0273C89.6531 34.0416 89.6373 34.0599 89.626 34.081C89.6147 34.102 89.6082 34.1253 89.6071 34.1491C89.6071 34.1782 89.5657 34.2051 89.5385 34.2385V34.4486L89.4622 34.5305V34.746L89.3969 34.8085V35.1037L89.2444 35.2545C89.2444 35.2933 89.2444 35.3396 89.2378 35.3903L89.0374 35.5702C88.9895 35.7017 89.0614 35.7307 89.0886 35.776V35.9915L89.0167 36.0723V36.4117C88.8479 36.7004 88.8479 36.7004 88.6464 36.8039V37.0948C88.6202 37.1228 88.5952 37.1487 88.5701 37.1767V37.6238C88.3969 37.71 88.4013 37.9201 88.2793 38.0472C88.3174 38.1442 88.1595 38.1733 88.1998 38.2713L88.0528 38.4168V38.5245L87.8349 38.74V38.8585C87.7834 38.8812 87.7332 38.9068 87.6846 38.935C87.6258 38.9727 87.5996 39.0428 87.5071 39.0482C87.4591 39.0482 87.4275 39.1397 87.3535 39.1139C87.2914 39.1764 87.2293 39.2367 87.1672 39.2981C87.1672 39.4285 87.1672 39.5599 87.1672 39.6968L86.982 39.7054C86.8633 39.5718 86.7914 39.3822 86.6008 39.2744H86.3231C86.2445 39.3091 86.1712 39.3545 86.1052 39.4091C86.0431 39.4738 86.0312 39.5815 85.944 39.6332H85.7959C85.7621 39.5524 85.6674 39.5783 85.6172 39.5255L85.5083 39.4177C85.4234 39.4005 85.3994 39.4457 85.3613 39.4791L85.2524 39.5869V39.8961L85.1217 39.9963H84.9256L84.8287 39.9263H84.6173L84.5487 39.8573H84.2361L84.1729 39.9198H83.9551C83.9333 39.9015 83.9072 39.8767 83.8778 39.8509H83.6991C83.6436 39.7862 83.5739 39.7022 83.5183 39.6354H83.3538C83.331 39.6591 83.3135 39.6763 83.2907 39.6979H82.3245L82.2472 39.6332H82.1078L82.0239 39.5578H81.7298L81.1852 39.0094C81.2168 38.9178 81.0763 38.8866 81.1024 38.7939L80.987 38.6926C80.9543 38.6037 80.9435 38.5085 80.9554 38.4146C80.9554 38.3424 80.9554 38.2692 80.9554 38.1992L81.0218 38.1334V37.8339L80.963 37.7596V37.1659L81.0262 37.1034V36.3039C81.0545 36.2587 81.097 36.221 81.0992 36.18C81.0992 36.1186 81.1601 36.1079 81.1787 36.0389V35.8482L81.2549 35.7652V35.6241L81.3105 35.5691C81.3105 35.5584 81.3279 35.5476 81.3257 35.539C81.293 35.414 81.3845 35.3138 81.3943 35.2017C81.4041 35.0897 81.4891 35.0412 81.4945 34.9475C81.6035 34.8817 81.6165 34.7492 81.7004 34.6598V34.4497L81.8409 34.3118C81.8409 34.2353 81.8475 34.1523 81.8507 34.0812L81.9161 34.0166V33.8011C82.0076 33.7461 81.9651 33.6114 82.0696 33.5802V33.3496L82.1241 33.2947C82.1492 33.2494 82.0925 33.2462 82.0751 33.1945V32.6407L82.4334 31.9306V31.5223L82.5783 31.379V31.0687L82.5151 31.0073L82.587 30.9286V30.7131C82.672 30.6453 82.6644 30.5138 82.77 30.4567C82.8757 30.3996 82.8876 30.2854 82.9552 30.1852V29.9115L83.0314 29.8307V29.5387C83.1218 29.5 83.0826 29.3804 83.1719 29.3308V29.0851L83.4007 28.86V28.4387L83.6185 28.2383V27.581C83.6436 27.5498 83.6654 27.5229 83.6948 27.4841V27.2212L83.8484 26.9529V26.6835L83.9246 26.6027V26.3872L84.0008 26.3043V25.9433L84.0695 25.8755V25.5091L84.2165 25.3626V25.0027L84.2928 24.9187V24.7032L84.3701 24.6213V24.477L84.5171 24.3315C84.507 24.2415 84.5089 24.1506 84.5226 24.0611C84.5525 23.9869 84.578 23.9109 84.5988 23.8337C84.6306 23.7422 84.6777 23.6566 84.7382 23.5805V23.4534C84.7143 23.4275 84.6903 23.4006 84.6664 23.3758C84.6533 23.3198 84.6772 23.281 84.7328 23.2433V22.9438C84.8417 22.8888 84.7982 22.7886 84.8243 22.7154L84.882 22.6572V22.2316C84.9637 22.1519 84.967 22.0301 85.0726 21.959L85.2175 21.9536L85.2992 21.8663C85.3243 21.7857 85.3284 21.7001 85.3112 21.6174L85.175 21.4828V21.2608L85.2415 21.1843V20.8966C85.3308 20.8428 85.3144 20.7275 85.3885 20.6596C85.4212 20.6305 85.3798 20.5713 85.3275 20.5357V20.1424C85.4266 20.094 85.3733 19.9916 85.4038 19.9205L85.4626 19.8634V19.4324C85.5432 19.3688 85.5236 19.2471 85.6151 19.1965V19.051L85.6913 18.9702V18.8301L85.7676 18.7439V18.3873C85.7926 18.3608 85.8118 18.3293 85.8238 18.295C85.8358 18.2606 85.8404 18.2242 85.8373 18.188L85.7599 18.0738C85.8188 17.9843 85.8286 17.8734 85.9113 17.8023V17.5868L85.9647 17.5351C85.9712 17.5254 85.9843 17.5157 85.9843 17.507C85.9843 17.3853 85.9843 17.2635 85.9843 17.1472L86.2022 16.9317C86.2163 16.853 86.1869 16.7593 86.2817 16.7076L86.2098 16.6289V16.4134C86.3013 16.3757 86.2817 16.2712 86.335 16.2055C86.3884 16.1398 86.371 16.0353 86.4244 15.9491C86.4625 15.8877 86.432 15.7831 86.432 15.6636L86.7152 15.4308C86.7315 15.3231 86.7152 15.2843 86.6575 15.2595V14.9589C86.725 14.8663 86.7489 14.7283 86.8753 14.6615V14.4385L86.9515 14.3566V14.2166L87.0278 14.1336V13.7026L87.091 13.6401V13.3708C87.1389 13.2867 87.177 13.2178 87.2162 13.1499H87.2892L87.3981 13.0422V12.8924L87.5343 12.7653C87.549 12.6708 87.5534 12.5751 87.5474 12.4797C87.6138 12.372 87.6563 12.2438 87.7652 12.1684V11.8645C87.9297 11.7729 87.9297 11.5682 88.0506 11.44C88.0506 11.3323 88.1432 11.2795 88.2096 11.2084V11.0672L88.2858 10.9853V10.8399L88.4133 10.716C88.4645 10.6427 88.3915 10.5339 88.5026 10.4833V10.1719L88.6507 10.0706C88.6507 10.0135 88.6507 9.98979 88.6573 9.96285C88.6812 9.90467 88.739 9.92514 88.7793 9.90682C88.8381 9.83033 88.7793 9.7409 88.8119 9.66979L88.7335 9.58575V9.44353C88.7444 9.43275 88.7531 9.41659 88.7618 9.41659H89.1267C89.1855 9.32609 89.3184 9.36488 89.3533 9.25929L89.4382 9.33363H89.5875C89.6474 9.28084 89.6093 9.21619 89.6245 9.14723L89.7389 9.05026L89.9034 9.03195C89.9393 8.92421 89.9033 8.81646 89.9284 8.68609L89.777 8.58481C89.7563 8.47707 89.8304 8.45013 89.8554 8.40596C89.8718 8.39626 89.8837 8.38226 89.8914 8.38441C90.0199 8.42428 90.1092 8.27667 90.2606 8.31761L90.3619 8.18401C90.3619 8.16892 90.3684 8.1366 90.3554 8.12259C90.2824 8.04394 90.2029 7.9696 90.1375 7.90711C90.1375 7.79936 90.2105 7.76596 90.2661 7.7261C90.326 7.71317 90.3554 7.75519 90.3924 7.79398H90.6103C90.7007 7.71102 90.851 7.70132 90.9087 7.57849C91.0176 7.55479 91.0732 7.71102 91.1864 7.6496C91.2611 7.68019 91.3323 7.71847 91.3988 7.76381C91.4751 7.82846 91.6058 7.74657 91.6537 7.87155H92.2463C92.255 7.87155 92.2648 7.85755 92.2811 7.84462V7.65391C92.3334 7.50523 92.4772 7.50738 92.5643 7.43304C92.5861 7.42267 92.6102 7.41811 92.6342 7.41981C92.6583 7.42151 92.6815 7.42941 92.7016 7.44273C92.7495 7.48583 92.8105 7.49014 92.8573 7.51923C92.9061 7.55592 92.9507 7.59784 92.9902 7.64421H93.3595L93.4401 7.71856H93.8104L93.8768 7.65283L94.038 7.64098C94.0729 7.60974 94.0979 7.56125 94.1687 7.57526C94.2395 7.58927 94.2777 7.73149 94.3931 7.72179C94.4269 7.72179 94.4258 7.77889 94.4432 7.80152C94.5217 7.90926 94.514 8.08919 94.7057 8.09243C94.7493 8.1463 94.7362 8.23357 94.8147 8.26913C94.8097 8.31133 94.8216 8.35378 94.8479 8.3874C94.8741 8.42102 94.9126 8.44315 94.9552 8.44906C95.0379 8.46737 95.0641 8.53848 95.1251 8.57512C95.1861 8.61175 95.2634 8.60959 95.3048 8.68286C95.3462 8.75613 95.4061 8.73565 95.454 8.76474C95.5139 8.80825 95.5677 8.85933 95.6142 8.91666C95.6226 8.92855 95.6298 8.94118 95.6359 8.95437V9.08474C95.6904 9.14185 95.7568 9.10306 95.8135 9.11599C95.9224 9.16663 95.9126 9.30238 95.9976 9.36918C95.9915 9.40596 95.9992 9.44366 96.0193 9.4752C96.0393 9.50674 96.0703 9.52996 96.1065 9.5405C96.2045 9.56851 96.2818 9.67733 96.4071 9.62777L96.6685 9.90251V9.95423L96.7448 10.0361V10.1805C96.7918 10.2205 96.8351 10.2645 96.8744 10.3119C96.9071 10.3583 96.8918 10.4315 96.9681 10.4649V10.7806C97.1096 10.8054 97.1859 10.9056 97.2643 10.9961V11.1394L97.3286 11.203L97.3438 11.3646C97.3863 11.4723 97.5007 11.4723 97.578 11.5165C97.6553 11.5607 97.7316 11.5768 97.7817 11.6523V11.7298C97.8557 11.7922 97.9245 11.8603 97.9876 11.9335C98.0322 11.996 98.0388 12.0843 98.0812 12.149C98.1329 12.216 98.1901 12.2787 98.2522 12.3364C98.3862 12.3214 98.3862 12.4517 98.4243 12.5174C98.4755 12.6026 98.5169 12.6995 98.5659 12.7879C98.5986 12.8471 98.5932 12.9301 98.6672 12.9667C98.7413 13.0034 98.7359 13.0853 98.7762 13.1434C98.8611 13.2803 98.9003 13.4462 99.0387 13.5496C99.0387 13.6455 99.1345 13.7026 99.128 13.8093C99.1327 13.8906 99.1676 13.9673 99.226 14.0248C99.2859 14.0905 99.2565 14.1616 99.275 14.2284C99.3622 14.2844 99.397 14.417 99.5321 14.4083C99.5735 14.4633 99.6541 14.4913 99.641 14.585C99.641 14.6087 99.6857 14.6378 99.7118 14.6658V15.1054C99.8447 15.1938 99.8687 15.3705 100.002 15.4621C100.017 15.5698 100.002 15.6776 100.008 15.7627L99.9351 15.8349V16.0503C99.9819 16.129 100.072 16.06 100.136 16.1042C100.181 16.1527 100.142 16.212 100.143 16.2227C100.231 16.3897 100.295 16.5115 100.373 16.6613V16.8433L100.449 16.9328V17.2118C100.549 17.3314 100.579 17.4855 100.679 17.6051V17.8206L100.971 18.1104V18.3259L101.045 18.4045V18.9174C100.959 18.9896 100.948 19.0995 100.889 19.2008L101.119 19.4281C101.104 19.5466 101.228 19.5757 101.262 19.6436C101.296 19.7115 101.205 19.7513 101.195 19.8106C101.192 19.8532 101.192 19.8962 101.195 19.9388C101.225 19.969 101.242 19.9862 101.265 20.0078V20.3579C101.35 20.4204 101.313 20.5508 101.418 20.5831V20.7426L101.364 20.7932C101.339 20.8726 101.333 20.9569 101.348 21.0389L101.557 21.2468C101.57 21.3298 101.586 21.4149 101.494 21.472V21.764C101.577 21.8179 101.565 21.931 101.636 21.9989C101.669 22.0301 101.626 22.0883 101.581 22.1195C101.602 22.1793 101.626 22.2376 101.655 22.2941C101.697 22.363 101.782 22.3943 101.797 22.4956C101.804 22.5548 101.888 22.6033 101.939 22.6572V22.9438L102.011 23.0257V23.3747C102.027 23.3952 102.049 23.4222 102.079 23.4609V23.8757C102.109 23.9071 102.132 23.9449 102.146 23.9864C102.16 24.0278 102.164 24.0717 102.158 24.1149L102.085 24.1968C102.085 24.2141 102.075 24.2529 102.085 24.2604C102.175 24.3153 102.134 24.4479 102.232 24.4759V24.6741L102.375 24.9435V25.3464L102.451 25.437V25.646L102.525 25.7279L102.456 25.8044V25.9509L102.749 26.2396V26.607L102.679 26.6835V26.8268C102.702 26.8527 102.727 26.8786 102.753 26.9066V26.9852L102.88 27.0294C102.938 27.0854 102.867 27.1673 102.929 27.2309C102.984 27.2901 103.023 27.3614 103.044 27.4388C103.062 27.5056 103.036 27.5854 103.119 27.6306V27.8461L103.195 27.9291V28.2232L103.272 28.3051V28.5206L103.349 28.6046V29.0356C103.369 29.0571 103.403 29.0754 103.402 29.0916C103.391 29.2241 103.519 29.3233 103.489 29.4795L103.641 29.5937V29.9826C103.666 30.0225 103.719 30.0397 103.718 30.1012C103.718 30.1313 103.748 30.1615 103.784 30.2283V30.4944L103.856 30.5655V30.753L104.086 31.184V31.3801L104.162 31.4609V31.6053C104.258 31.657 104.226 31.7518 104.243 31.8304C104.343 31.88 104.27 32.0028 104.326 32.0459C104.381 32.089 104.358 32.2183 104.454 32.2549V32.5459L104.532 32.6267V32.7721L104.597 32.8368V33.1298L104.671 33.2042V33.4024C104.702 33.4487 104.728 33.4865 104.753 33.5231C104.764 33.5813 104.723 33.6114 104.683 33.6448V33.9422C104.726 34.0252 104.818 34.05 104.901 34.0931V34.1663C104.946 34.2094 104.989 34.2525 105.04 34.3042V34.7136L105.194 34.9916V35.2491C105.222 35.2933 105.247 35.3321 105.271 35.372C105.33 35.47 105.349 35.5971 105.453 35.6618C105.558 35.7264 105.549 35.8514 105.635 35.9193C105.635 36.0152 105.72 36.0755 105.725 36.179C105.731 36.2824 105.809 36.361 105.865 36.4699V37.0711L106 37.3383ZM94.9519 26.1674L94.8778 26.0834V25.8679L94.8081 25.799V25.6115C94.7232 25.4499 94.66 25.3281 94.5903 25.1881V24.993C94.502 24.9543 94.5184 24.8519 94.465 24.7862C94.4116 24.7205 94.4574 24.5998 94.3681 24.5351V24.3326L94.2907 24.2561V23.8154L94.1459 23.6732V23.309L94.0718 23.2293V23.1108C93.9901 22.9578 93.9204 22.8274 93.842 22.6798V22.3436C93.683 22.2359 93.6655 22.0387 93.5501 21.903V21.0723L93.3976 20.9645C93.4357 20.8137 93.2887 20.7275 93.33 20.6014C93.232 20.4872 93.207 20.331 93.1057 20.2146V19.8494C93.0368 19.7949 92.9802 19.7268 92.9395 19.6494C92.8988 19.5721 92.8749 19.4871 92.8693 19.4001C92.8214 19.3667 92.7996 19.2923 92.7223 19.3053C92.6297 19.3354 92.6721 19.4583 92.5872 19.4949V19.7104L92.5109 19.7944V20.303C92.3759 20.3967 92.3519 20.5723 92.2201 20.6607C92.2114 20.7684 92.2277 20.8762 92.2201 20.9613L92.1482 21.0346V21.9105C92.1232 21.9385 92.0981 21.9644 92.072 21.9924V22.2133C91.9576 22.2876 91.9217 22.4169 91.8443 22.5365V23.1679L91.7812 23.2304V23.3747C91.755 23.4028 91.73 23.4286 91.7049 23.4566V23.7292C91.6842 23.7896 91.6287 23.8014 91.6254 23.8628C91.6254 23.9027 91.5807 23.9404 91.5524 23.9856V24.1882L91.4893 24.2647C91.5176 24.2992 91.5394 24.3261 91.5557 24.3477V24.547L91.4849 24.63V24.7754L91.5546 24.8519V24.9909L91.4805 25.0695V25.5005C91.4555 25.5479 91.3956 25.5652 91.4119 25.646C91.4283 25.6686 91.4544 25.7052 91.4773 25.7354V26.1761C91.388 26.2224 91.4108 26.3021 91.4087 26.356L91.6755 26.62C91.7256 26.578 91.8345 26.5877 91.8879 26.5015L91.9663 26.5726H92.402L92.4794 26.5025H92.6972L92.7604 26.565H94.2592L94.3256 26.5004H94.5434L94.6219 26.4228H94.9258C94.9571 26.3415 94.9662 26.2534 94.9519 26.1674ZM25.7274 39.8304C25.7217 39.8443 25.7136 39.8571 25.7034 39.8681C25.6217 39.9327 25.5389 39.9963 25.4561 40.0599V40.1676C25.441 40.1836 25.4205 40.1936 25.3985 40.1958C25.3764 40.198 25.3544 40.1922 25.3363 40.1795C25.3203 40.1639 25.3009 40.1523 25.2795 40.1455C25.2581 40.1388 25.2354 40.1371 25.2132 40.1407C25.1239 40.1946 25.2132 40.2775 25.1642 40.3411C25.0913 40.3756 25.0074 40.3497 24.9311 40.3583L24.856 40.4122H24.6773C24.5884 40.4435 24.5027 40.4832 24.4214 40.5307C24.3462 40.5878 24.3299 40.6686 24.2624 40.7268V40.8636C24.3227 40.9255 24.3698 40.9988 24.4007 41.0791L24.3081 41.1869C24.1905 41.1718 24.1284 41.0931 24.0249 41.1276C23.9312 41.0673 23.7983 41.0479 23.7341 40.9638H23.5326C23.4592 41.0067 23.3955 41.0639 23.3452 41.1319C23.3005 41.1874 23.2739 41.2551 23.269 41.3259L23.1916 41.3862C23.1198 41.4218 23.037 41.3862 22.9564 41.4077C22.8954 41.2946 22.7113 41.3065 22.6449 41.1987V41.063C22.6841 40.98 22.8159 40.9488 22.8562 40.8615C22.8583 40.8526 22.8583 40.8434 22.8562 40.8345C22.8311 40.7731 22.7157 40.8216 22.695 40.7548C22.6274 40.7548 22.6133 40.8507 22.5348 40.7958L22.4346 40.9725C22.4499 41.022 22.5436 41.0479 22.4913 41.1115C22.4052 41.1772 22.3758 41.0867 22.3312 41.0759H22.1917L22.0828 41.1535V41.2612L22.0196 41.3108C22.0196 41.3345 22.0142 41.369 22.0098 41.4185C21.9527 41.4754 21.8896 41.526 21.8214 41.5694L21.5099 41.4465C21.4271 41.4907 21.3454 41.5273 21.3759 41.6135H21.0611L20.9391 41.7213C20.8401 41.7267 20.7408 41.7267 20.6418 41.7213L20.5655 41.6706C20.4708 41.6599 20.3684 41.7008 20.3019 41.6232L20.0623 41.6092L19.9675 41.5069H19.521L19.4425 41.4498H19.3042L19.2399 41.4002L19.1256 41.3948C19.0458 41.439 18.9536 41.456 18.8631 41.4433L18.7814 41.3442H18.3119C18.278 41.2744 18.2398 41.2068 18.1976 41.1416C18.1637 41.1013 18.1218 41.0683 18.0745 41.0447C18.0279 41.022 17.9799 41.0026 17.9307 40.9865V40.8787L18.0549 40.7818C18.0712 40.7688 18.0549 40.7602 18.0396 40.7419C18.0244 40.7236 18.0157 40.6956 18.0004 40.6729C17.9889 40.6583 17.9761 40.6446 17.9623 40.632C17.8479 40.6191 17.825 40.7193 17.7444 40.7397C17.6638 40.7602 17.6355 40.6848 17.5865 40.6535V40.5458C17.6649 40.4865 17.7706 40.5523 17.849 40.5059C17.8544 40.4337 17.8544 40.4337 17.7542 40.3551H17.6148L17.5124 40.2754V40.1181C17.4471 40.0545 17.3589 40.0987 17.2597 40.0825L17.104 39.923H16.9852C16.9086 39.8672 16.8475 39.7931 16.8077 39.7076C16.7946 39.6483 16.9242 39.6343 16.8796 39.5664C16.9961 39.4759 17.1127 39.3865 17.2292 39.2949V39.1311L17.1606 39.074V38.5827L17.2859 38.4847C17.2488 38.4265 17.2336 38.3586 17.1628 38.3123L17.2292 38.2541V38.0386L17.1595 37.9794C17.1595 37.9707 17.1595 37.96 17.1595 37.9524C17.1976 37.891 17.2369 37.8307 17.2924 37.7455V37.4503L17.3654 37.3803V37.2187L17.3022 37.1616V37.0538L17.1573 36.9364V36.7748L17.0963 36.7285V36.5334L16.9471 36.318C16.994 36.2264 16.8382 36.1865 16.8818 36.0949L16.6236 36.0863L16.5964 36.0357C16.5964 36.027 16.5964 36.013 16.5964 36.0087C16.6936 35.9433 16.7694 35.8512 16.8142 35.7437L16.7478 35.6812L16.8099 35.6241V35.4668L16.8578 35.4258C16.8665 35.4097 16.8807 35.3946 16.8818 35.3784C16.8818 35.3149 16.8818 35.2513 16.8818 35.1877L16.8317 35.1489C16.7925 35.0983 16.8186 35.0412 16.811 34.9916C16.7653 34.8978 16.6954 34.8175 16.6084 34.7589V34.524L16.6694 34.4777V34.3646L16.5604 34.2913C16.5114 34.2159 16.5365 34.1523 16.5321 34.0898C16.5278 34.0273 16.5321 33.9821 16.5321 33.9314L16.47 33.8829V33.745L16.2522 33.4218V33.1147L16.1106 32.9984C16.1106 32.9682 16.0954 32.9316 16.1106 32.9154C16.2195 32.8077 16.2271 32.6784 16.3154 32.5448V32.4123C16.3426 32.3692 16.4156 32.3498 16.3894 32.2927L16.3176 32.2334V32.1257L16.2457 32.0642V31.741L16.1858 31.6947V31.5201L16.2435 31.4749V31.0439C16.176 31.0019 16.2054 30.9071 16.1095 30.8801V30.6011L16.0387 30.5418V30.3781L16.0899 30.3393C16.0976 30.3235 16.1035 30.3068 16.1073 30.2897C16.1073 30.2175 16.1073 30.1443 16.1073 30.0742L15.9712 29.8749V29.6411L15.6226 29.3707H15.4407L15.3667 29.4245H15.0159L14.9506 29.4762C14.8544 29.4811 14.7581 29.4811 14.6619 29.4762L14.6053 29.4321L14.3591 29.5334C14.3014 29.5409 14.2807 29.5021 14.2437 29.4795H14.1053L14.0291 29.5344H13.7481L13.698 29.5732C13.6779 29.5804 13.6571 29.5851 13.6359 29.5872C13.5074 29.5872 13.3788 29.5872 13.2612 29.5872L13.1817 29.5366L13.1218 29.5829H12.7155C12.6499 29.6303 12.5684 29.6511 12.4878 29.6411L12.4116 29.5883H12.1338L12.0576 29.6422H11.4977L11.4346 29.6917L11.306 29.6993L11.2036 29.6422C11.1808 29.6399 11.1578 29.6434 11.1367 29.6523C11.1156 29.6611 11.097 29.6751 11.0827 29.6928H10.8801L10.7941 29.7488H10.1645L10.0926 29.6982L10.0175 29.7521H9.389L9.21254 29.8878V30.1626L9.14283 30.2208C9.14283 30.2746 9.15155 30.3285 9.09382 30.3738C9.05444 30.411 9.02425 30.4567 9.00559 30.5074C8.98598 30.5548 9.01757 30.6151 8.92717 30.655V31.0428L8.8629 31.0924V31.3079C8.78775 31.3747 8.742 31.4544 8.67338 31.5234C8.60217 31.5995 8.54634 31.6883 8.50891 31.7852V32.3519L8.35532 32.437C8.39018 32.5135 8.32047 32.534 8.29215 32.5739V33.1686C8.18323 33.2408 8.19303 33.3636 8.08629 33.4455V33.7181L8.15164 33.7741V33.8819L8.08302 33.9401V34.5402L7.95776 34.6372C7.91092 34.7126 7.95776 34.7708 8.01766 34.8343L7.87389 35.0498V35.2491L7.94142 35.3062V35.414L7.87824 35.4625V35.678L7.6604 35.8439C7.66307 35.8676 7.65707 35.8915 7.64349 35.9113C7.62991 35.931 7.60964 35.9453 7.58633 35.9516V36.0594L7.51662 36.1175V36.4408L7.64842 36.5485V36.8254L7.59069 36.8825V36.9903L7.43929 37.0786C7.4687 37.1497 7.4077 37.1734 7.37284 37.2101V37.5333L7.30967 37.5829V37.7983L7.20075 37.8878H7.12995C7.05806 37.9158 7.13866 38.0117 7.02102 38.0074V38.4567L6.94914 38.5181V38.6053C6.92735 38.6366 6.90448 38.6754 6.87725 38.7131C6.85002 38.7508 6.83041 38.7702 6.80754 38.7993V38.9458L6.87834 39.018C6.87834 39.0719 6.87834 39.143 6.87834 39.2141C6.87834 39.2292 6.85873 39.2453 6.84239 39.2572C6.77159 39.3078 6.85546 39.407 6.74218 39.4436V39.7205L6.80972 39.7765L6.70079 39.8552H6.29669C6.23243 39.8304 6.20411 39.7603 6.11588 39.7474C6.02765 39.7345 5.98953 39.686 5.89804 39.6882C5.8305 39.6882 5.76842 39.6224 5.64207 39.6472C5.61048 39.6828 5.55929 39.7431 5.49502 39.8185C5.55166 39.8993 5.3861 39.9823 5.41551 40.0911L5.24123 40.354C5.24123 40.354 5.2347 40.3594 5.22489 40.3594H4.17162L4.08012 40.4671H3.90476L3.83178 40.4154H3.69345L3.61938 40.4682H3.48431C3.45382 40.4488 3.42114 40.4133 3.40153 40.4176C3.27192 40.4445 3.18369 40.3163 3.04754 40.3691L2.99307 40.4111H2.70988L2.6369 40.3616H2.42777L2.35479 40.4144H1.79166L1.69145 40.3335V40.2258L1.59015 40.1428H1.22418L1.16536 40.1892H0.688277L0.277639 39.8659C0.238734 39.8702 0.199394 39.8637 0.164006 39.8472C0.128618 39.8306 0.0985733 39.8047 0.0772222 39.7722V39.4921L0.207929 39.4253V39.2895C0.185472 39.2618 0.157393 39.239 0.1255 39.2227C0.093607 39.2064 0.0586088 39.1968 0.022761 39.1947C0.0151365 39.1882 0.000976562 39.1818 0.000976562 39.1742C0.000976562 39.0837 0.000976562 38.9932 0.000976562 38.9243L0.199215 38.6258L0.144754 38.5752V38.4674L0.0739546 38.4082C0.0510809 38.3543 0.102274 38.3263 0.141486 38.3004V38.1571L0.359331 37.8339V37.5969L0.423595 37.5473V37.2241L0.496574 37.1637C0.4737 37.0226 0.62837 36.9332 0.664314 36.8146L0.773236 36.7974V36.5765L0.845125 36.5076V36.3912L0.708972 36.3212V36.0152L0.759077 35.9764C0.768101 35.9617 0.774719 35.9457 0.778682 35.929C0.778682 35.8471 0.778682 35.7652 0.778682 35.6866C0.689366 35.6424 0.704615 35.5788 0.717686 35.5163L0.766701 35.4776C0.772357 35.4611 0.77637 35.4441 0.778682 35.4269C0.778682 35.3461 0.787396 35.2664 0.791753 35.1856C0.900676 35.1403 0.799378 35.0207 0.915925 34.9787C0.915925 34.9184 0.902854 34.8505 0.989992 34.8117C0.975832 34.733 1.0902 34.7126 1.10981 34.6587C1.13595 34.5854 1.23833 34.5305 1.19586 34.4314L1.13486 34.3743V34.2019L1.27101 34.1275V33.9336L1.20457 33.8819C1.19857 33.8073 1.19857 33.7324 1.20457 33.6578L1.48014 33.4423L1.41261 33.3841C1.38538 33.327 1.45727 33.3076 1.47905 33.2764V33.1115L1.41915 33.0652V32.8993C1.43548 32.8809 1.45836 32.8518 1.48123 32.8238C1.50628 32.7678 1.40934 32.757 1.41261 32.6999C1.47688 32.6019 1.5455 32.4963 1.63046 32.3767V31.963L1.69036 31.9166V31.6171L1.9801 31.1754V30.9243C2.101 30.8845 1.99861 30.7627 2.10536 30.7185C2.10536 30.6366 2.19358 30.5979 2.25785 30.5451V30.4373C2.23824 30.3996 2.18596 30.4104 2.14893 30.4039C2.09447 30.363 2.13259 30.3145 2.11952 30.2725L2.19141 30.2121V30.1044L2.26003 30.0441V29.4666L2.39618 29.2694V29.1466L2.4953 28.9936L2.58679 28.9742C2.59551 28.9591 2.61076 28.944 2.61076 28.9278C2.61076 28.6639 2.61076 28.3999 2.61076 28.1338L2.67175 28.0885V27.7588L2.74255 27.7039V27.455L2.88742 27.2395V26.9367C2.96911 26.8926 2.93535 26.7945 3.03229 26.7697V26.3248C3.05734 26.3054 3.08021 26.2849 3.10526 26.2644V26.1567L3.17715 26.0931V25.7699L3.23706 25.7225V25.4725C3.29043 25.354 3.4658 25.3723 3.52462 25.2796V24.9564L3.45817 24.9047C3.45272 24.8297 3.45272 24.7545 3.45817 24.6795C3.54858 24.6407 3.49521 24.5567 3.53878 24.5157C3.55928 24.4973 3.57509 24.4743 3.58493 24.4486C3.59477 24.423 3.59836 24.3954 3.59542 24.3681V24.1904L3.67057 24.1322V23.7497L3.73375 23.7001V23.5385L3.80673 23.4782V22.9319L3.85683 22.8931C3.88951 22.7013 4.04962 22.5537 4.15637 22.3544V22.2747L4.22826 22.2143V22.0517L4.16399 22.0021L4.15528 21.9019L4.22499 21.8265V21.6164L4.30014 21.5582V21.1208L4.3655 21.0701V20.8546C4.44501 20.8094 4.42432 20.7189 4.51036 20.679V20.248C4.53521 20.2294 4.55819 20.2085 4.57898 20.1855C4.58879 20.1715 4.57899 20.1511 4.58552 20.1327L4.78812 19.9754V19.6522L4.86 19.5897V19.1587C4.94388 19.1189 4.9308 19.0327 4.99834 18.982C5.02121 18.9648 4.99834 18.9131 4.99834 18.8818L5.14103 18.7741V18.2828L5.20638 18.2311V18.0382L5.41442 17.715V17.5243L5.48849 17.4564C5.50156 17.4058 5.46452 17.3831 5.42531 17.3551V17.1332L5.49067 17.0739C5.49067 17.0459 5.47106 16.9942 5.49067 16.9769C5.5582 16.9263 5.54404 16.8412 5.629 16.8002V16.532C5.65405 16.5083 5.69871 16.4835 5.69435 16.4684C5.66058 16.3725 5.80327 16.31 5.76842 16.2174C5.82209 16.1559 5.86749 16.0878 5.90348 16.0148C5.92853 15.9469 6.0124 15.9254 6.04617 15.8715L5.99607 15.8327C5.94705 15.7573 5.99607 15.6991 6.04944 15.642C6.01349 15.5537 6.10499 15.4933 6.14311 15.4265C6.18123 15.3597 6.27055 15.3328 6.33046 15.294V15.0042C6.42086 14.9761 6.37185 14.8803 6.46225 14.8501V14.4191C6.58098 14.3114 6.58751 14.1498 6.75199 14.0776V13.5755C6.86091 13.5345 6.87507 13.4333 6.95785 13.36V13.2092C7.03519 13.1618 7.01558 13.0712 7.10272 13.0325V12.9236L7.1648 12.8752V12.6543C7.30282 12.5746 7.41156 12.4534 7.47523 12.3084C7.57762 12.2686 7.47523 12.1716 7.57108 12.1177C7.62337 12.0865 7.64188 12.01 7.66367 11.9593C7.6992 11.8426 7.7732 11.7409 7.87389 11.6706V11.5628L7.80636 11.5047V11.3969C7.85428 11.3743 7.8728 11.3172 7.93924 11.3183C7.96085 11.3189 7.98227 11.314 8.00137 11.304C8.02048 11.294 8.0366 11.2792 8.04816 11.2612C8.11243 11.1739 8.17016 11.0823 8.22462 10.9907C8.24313 10.9595 8.21264 10.9228 8.24749 10.883C8.31938 10.8086 8.3477 10.7127 8.43593 10.6147V10.3378C8.54485 10.3087 8.65377 10.3378 8.76269 10.3195C8.79101 10.2882 8.8531 10.2721 8.86399 10.2193C8.86399 10.1482 8.76269 10.1277 8.72239 10.0749C8.75071 10.0221 8.67665 10.0027 8.65922 9.96716C8.70605 9.92299 8.76814 9.95962 8.81933 9.9413L8.90103 10.0006H9.03827L9.11451 10.0544C9.13957 10.0544 9.17769 10.0544 9.18314 10.0544C9.22344 9.98871 9.32909 10.0156 9.38464 9.9607C9.40899 9.9474 9.43634 9.94042 9.46415 9.94042C9.49197 9.94042 9.51932 9.9474 9.54367 9.9607C9.6231 10.0131 9.71439 10.0453 9.80944 10.0544C9.90529 10.0544 9.95975 10.1234 10.061 10.118C10.1343 10.1227 10.2045 10.149 10.2626 10.1934C10.3279 10.2387 10.39 10.2182 10.4553 10.215L10.5174 10.1654H10.8758C10.9027 10.1052 10.9363 10.0481 10.976 9.99517C11.0315 9.93591 11.0196 9.85511 11.0642 9.80662C11.1089 9.75814 11.0936 9.67841 11.1797 9.65039C11.1721 9.59976 11.2058 9.5642 11.2548 9.54265C11.3376 9.50063 11.33 9.41875 11.3921 9.36595C11.416 9.34548 11.3855 9.29053 11.4062 9.25821C11.5152 9.11276 11.6067 8.95761 11.7058 8.80784C11.7203 8.77572 11.7367 8.74442 11.7548 8.71411C11.806 8.65808 11.8844 8.62037 11.9062 8.54279C11.9193 8.49539 11.9999 8.47276 12.0315 8.41997C12.1332 8.23961 12.2463 8.0658 12.3702 7.89957C12.392 7.87263 12.3702 7.82738 12.3822 7.79182C12.4016 7.76185 12.4254 7.73497 12.453 7.71209C12.4377 7.63559 12.3441 7.61405 12.3092 7.5591C12.3201 7.51708 12.2842 7.46752 12.3419 7.43088L12.4878 7.53863L12.697 7.37593L12.8658 7.1055C12.8081 7.01823 12.7819 6.91048 12.6588 6.85984V6.74456L13.1272 6.56355C13.1793 6.59953 13.2426 6.61596 13.3058 6.60988L13.5869 6.37284L13.6152 6.40086L13.9855 6.25971C14.0356 6.222 14.1021 6.17029 14.1685 6.11749H14.309L14.3842 6.17244H14.4931C14.5622 6.19089 14.6285 6.21843 14.6903 6.25433C14.7523 6.29958 14.8438 6.25433 14.8798 6.29204C14.9419 6.35991 15.0453 6.30712 15.0976 6.35022C15.1499 6.39331 15.2229 6.38793 15.2937 6.39116L15.4396 6.4989H15.578C15.6422 6.47735 15.5834 6.40409 15.6597 6.39116C15.7686 6.37823 15.7904 6.48597 15.8525 6.4989C15.8789 6.50381 15.9063 6.50193 15.9318 6.49344C15.9574 6.48496 15.9803 6.47015 15.9984 6.45042H16.1335L16.2075 6.50321H17.0473L17.1258 6.55924H17.263C17.3229 6.60557 17.3839 6.64867 17.4373 6.69715C17.4906 6.74563 17.5843 6.70469 17.5985 6.77473H18.1649C18.234 6.81138 18.2888 6.86976 18.3206 6.94065H18.3827L18.5624 7.07964C18.5624 7.10227 18.545 7.13351 18.6071 7.1529H18.8576C18.9175 7.1723 18.9404 7.23156 19.0199 7.20893L19.1953 7.35869L19.3107 7.3824C19.3445 7.4255 19.3412 7.48475 19.4055 7.51492C19.387 7.58388 19.4796 7.60112 19.5057 7.64745C19.5319 7.69378 19.6059 7.75519 19.6146 7.83061C19.6146 7.86617 19.6146 7.90064 19.656 7.9265C19.6974 7.95236 19.6636 8.04071 19.7562 8.05041V8.33054L19.8249 8.38764C19.8684 8.45768 19.7323 8.47168 19.7562 8.53202C19.7802 8.59236 19.7181 8.62899 19.6854 8.67316C19.6909 8.7432 19.8063 8.78845 19.7442 8.88865C19.8151 8.93821 19.8924 8.99639 19.9719 9.04595C20.0514 9.09552 20.0438 9.19572 20.1451 9.23666C20.2464 9.2776 20.2475 9.37026 20.3194 9.43814V9.53511L20.3836 9.58575C20.3836 9.63423 20.3902 9.69349 20.3934 9.75491L20.461 9.81524C20.4392 9.92837 20.2867 10.0027 20.3259 10.1385C20.4046 10.188 20.4691 10.2566 20.5132 10.3378C20.532 10.3793 20.5427 10.4239 20.5448 10.4692L20.6777 10.577V10.7925L20.7431 10.8442V11.3829L20.815 11.4454V11.7148L20.8858 11.774V12.9829L20.8346 13.0228C20.7997 13.0626 20.8215 13.1068 20.8215 13.151L20.8792 13.1952V13.3923L21.0241 13.5981V14.014L21.0971 14.0765V14.2381L21.0295 14.2952L21.1003 14.3566V14.4644L21.2332 14.5721V15.3263C21.2609 15.3461 21.2826 15.3731 21.2959 15.4042C21.3091 15.4354 21.3134 15.4696 21.3084 15.503L21.2398 15.5623V15.9405L21.3095 15.9997V16.3714L21.365 16.4134C21.4053 16.4889 21.3585 16.5697 21.3835 16.6408L21.316 16.6925V17.0319L21.3814 17.0836V17.4661L21.4467 17.5167V18.3873L21.5186 18.4498V18.5575L21.5916 18.619V19.3257L21.6591 19.3839C21.6733 19.4378 21.621 19.5035 21.7234 19.5283V20.1995L21.658 20.2642V20.4226L21.5927 20.4732V20.7964L21.6591 20.8535V21.2845L21.7321 21.3459V21.4537L21.7974 21.5108V21.8944L21.7364 21.9418L21.792 21.9967C21.7974 22.0969 21.7974 22.0969 21.7332 22.1637V22.3232L21.6613 22.3857V22.4934C21.7419 22.5246 21.7114 22.6098 21.7811 22.6421C21.7898 22.6529 21.8007 22.6593 21.8007 22.6669C21.8007 22.7854 21.8007 22.9039 21.8007 23.0224L21.9369 23.2196V23.4146L22.0098 23.4803V23.6376L22.0817 23.6991V23.8068L22.0142 23.8639V24.1871L22.0741 24.2345V24.3865L22.1525 24.4662V24.6235L22.2266 24.6817V25.0642L22.2909 25.1148V25.438L22.3638 25.4984V25.8809L22.4847 25.9735C22.5316 26.0274 22.463 26.1082 22.5686 26.147V26.3528C22.5954 26.3732 22.6165 26.4 22.6298 26.4308C22.6432 26.4615 22.6483 26.4951 22.6449 26.5284C22.5719 26.5747 22.4531 26.5801 22.4335 26.676C22.4455 26.7342 22.5185 26.7557 22.5588 26.7978C22.5991 26.8398 22.5588 26.8936 22.6449 26.9055V27.358L22.7113 27.4097V27.5767L22.7843 27.6403V28.6229L22.7157 28.68V28.8416C22.7396 28.8632 22.7712 28.8804 22.7832 28.9041C22.7952 28.9278 22.7832 28.958 22.8159 28.9752L22.9771 28.986C23.0026 29.0469 23.0065 29.1145 22.988 29.1778L22.9324 29.222V29.5452L22.8627 29.6098C22.8627 29.6239 22.8573 29.6411 22.8562 29.6583C22.8551 29.6756 22.8475 29.7068 22.8562 29.7111C22.9651 29.7553 22.9008 29.8437 22.9466 29.9029C22.9923 29.9622 23.0217 30.0042 23.0555 30.0548L23.0065 30.0925C23.001 30.1087 22.9978 30.1259 22.9912 30.1421C22.9586 30.2218 23.086 30.2595 23.0751 30.3339C23.1481 30.3996 23.1644 30.4977 23.2733 30.5386V30.6517L23.3234 30.6916C23.33 30.6981 23.342 30.7056 23.342 30.7121C23.342 30.8942 23.342 31.0762 23.342 31.2508C23.4509 31.324 23.4422 31.448 23.55 31.5245V31.6861L23.4836 31.7432V31.8509L23.4095 31.9123C23.4258 32.0201 23.5783 32.0976 23.5533 32.2205L23.4825 32.3067C23.4607 32.3681 23.5859 32.3853 23.5533 32.4489C23.6927 32.5319 23.7167 32.6719 23.8267 32.7883V33.0975L23.8931 33.1611C23.8256 33.2343 23.8114 33.3388 23.6949 33.3766V33.4951L23.9127 33.661V33.9336L23.9781 33.9842V34.6307C24.0075 34.6706 24.0761 34.691 24.05 34.7492L24.1589 34.8279H24.2754C24.4007 34.8623 24.3843 34.9668 24.4791 35.0229V35.2987L24.5434 35.3483V35.6715L24.685 35.7868V36.3891L24.6251 36.4354V36.8427L24.6817 36.8868C24.6174 36.9536 24.5292 37.0075 24.4726 37.0571C24.4734 37.0871 24.4846 37.116 24.5045 37.1388C24.5244 37.1616 24.5516 37.1768 24.5815 37.1821C24.627 37.183 24.671 37.1988 24.7065 37.2271C24.742 37.2553 24.767 37.2944 24.7776 37.3383C24.7776 37.3534 24.8081 37.3641 24.8287 37.3803V37.5516L24.9736 37.6292V37.766L25.0401 37.8177C25.0466 37.8923 25.0466 37.9673 25.0401 38.0418L24.9137 38.1399C24.8941 38.1994 24.8941 38.2635 24.9137 38.3231C25.0085 38.3371 25.0085 38.3371 25.1827 38.2013V38.1485L25.3178 38.0408C25.3178 38.0149 25.3178 37.9794 25.3265 37.9147L25.4354 37.8544L25.5291 37.9266V38.0343L25.5988 38.0936C25.5117 38.1216 25.5564 38.2142 25.467 38.2476V38.6786C25.4442 38.7023 25.4235 38.7228 25.3984 38.7465C25.3812 38.8048 25.3831 38.8671 25.4039 38.9243L25.4572 38.9663V39.2238L25.6021 39.4199V39.6806C25.6892 39.7054 25.6435 39.7991 25.7274 39.8304ZM15.2142 25.0017C15.078 24.9866 15.1499 24.8799 15.0497 24.8551C15.0497 24.6203 15.0497 24.3832 15.0497 24.1473C15.0497 24.1397 15.0377 24.1333 15.0312 24.1257L14.9811 24.0869V23.8714C14.9571 23.852 14.9114 23.8294 14.9146 23.8122C14.9244 23.7421 14.8482 23.7217 14.8057 23.6807C14.6772 23.6872 14.6456 23.5881 14.5497 23.5407V23.3252C14.4964 23.253 14.4593 23.2002 14.4169 23.1431V22.9502L14.5617 22.7498V22.4934L14.6195 22.4492V22.2758L14.5563 22.2262C14.5563 22.0581 14.5563 21.8857 14.5563 21.7133C14.5595 21.6962 14.5658 21.6798 14.5748 21.6649L14.6249 21.6261V21.4634L14.6946 21.4041V21.0809C14.6118 21.0399 14.6238 20.9538 14.5606 20.9107V20.6445L14.6195 20.5853L14.5552 20.5357V19.8892C14.5541 19.8709 14.5541 19.8526 14.5552 19.8343C14.5552 19.8268 14.5661 19.8203 14.5846 19.7987L14.6935 19.7201V19.2977C14.6173 19.19 14.5519 19.0822 14.4898 18.9971V18.5231C14.5062 18.4832 14.5617 18.481 14.5367 18.4466L14.4833 18.4056C14.4833 18.1707 14.4833 17.9337 14.4833 17.6977C14.4833 17.6902 14.4691 17.6837 14.4528 17.6687L14.4136 17.6396V17.1957C14.325 17.1451 14.2557 17.0671 14.2164 16.9737C14.309 16.8972 14.3134 16.7809 14.4125 16.7076C14.419 16.7076 14.4125 16.6903 14.4125 16.6806V16.6009C14.4397 16.5718 14.4931 16.5567 14.4779 16.4932C14.3787 16.4447 14.3994 16.3186 14.3014 16.2486C14.2034 16.1786 14.1838 16.0557 14.0629 16.0019C14.0498 15.9545 14.0857 15.906 14.0313 15.8693H13.9997L13.8592 15.9372C13.8483 15.9997 13.8592 16.045 13.833 16.0676C13.8069 16.0902 13.7677 16.1182 13.7818 16.1656L13.8483 16.2227V16.4382C13.8189 16.4716 13.7546 16.4943 13.7807 16.546C13.8069 16.5751 13.8603 16.5891 13.8526 16.6203C13.8407 16.686 13.7437 16.7097 13.7786 16.7755C13.8134 16.8412 13.7078 16.8477 13.7121 16.8897C13.7187 16.95 13.6315 16.9694 13.6315 17.0308C13.6315 17.0631 13.5542 17.0933 13.5226 17.131C13.491 17.1687 13.4834 17.2301 13.4246 17.2646V17.5878C13.3048 17.6288 13.4082 17.7505 13.2971 17.7936C13.2906 17.8551 13.2841 17.9165 13.2786 17.9725L13.2198 18.0188V18.5058L13.1468 18.5683V18.7838L12.9072 18.9616C12.8309 19.0801 12.7776 19.162 12.7231 19.2449V19.3268C12.7547 19.3624 12.819 19.385 12.7939 19.4346L12.7209 19.496V19.6867C12.6665 19.7772 12.6447 19.8645 12.5782 19.9108C12.4824 19.9787 12.5652 20.095 12.4443 20.1446V20.2976L12.2994 20.4915V20.6413L12.2351 20.6909V20.9721C12.1393 20.9958 12.1861 21.0744 12.1262 21.1067C12.0663 21.1391 12.1349 21.2296 12.0532 21.2759C12.002 21.305 12.0249 21.3836 11.953 21.4052V21.6207L11.8801 21.6821V21.7898L11.8082 21.8545V22.2682L11.6677 22.4762V22.6712L11.6077 22.7175V22.9879L11.5359 23.0483V23.156L11.4629 23.2164V23.3747L11.3986 23.4243V23.7303C11.3376 23.8186 11.2962 23.879 11.2461 23.9458V24.199C11.1623 24.2356 11.1982 24.325 11.1132 24.3531V24.6256L11.0414 24.686V24.7937L10.9695 24.8584V25.1256L10.9096 25.1719V25.4219L11.0729 25.591L11.1688 25.5318H11.5783L11.635 25.4876C11.6458 25.4866 11.6568 25.4866 11.6677 25.4876H12.6153C12.6251 25.4876 12.6338 25.479 12.6436 25.4736L12.6937 25.4348L12.7678 25.4876H12.9061L12.9856 25.4305H13.1926L13.2525 25.3842H13.5487C13.5999 25.4251 13.65 25.466 13.7165 25.4025V25.3486L13.8178 25.2699H14.309L14.382 25.3227L14.4572 25.2689C14.6053 25.2829 14.7077 25.2075 14.8351 25.1547H14.9647L15.2142 25.0017Z" fill="white"/>
</svg>
