<svg width="106" height="50" viewBox="0 0 106 50" fill="none" xmlns="http://www.w3.org/2000/svg">
<mask id="mask0_267_21661" style="mask-type:luminance" maskUnits="userSpaceOnUse" x="5" y="0" width="97" height="49">
<path d="M5.29004 0.0957031H101.248V48.4249H5.29004V0.0957031Z" fill="white"/>
</mask>
<g mask="url(#mask0_267_21661)">
<path fill-rule="evenodd" clip-rule="evenodd" d="M100.891 0.0957031H5.27539V48.4392H101.248V0.0957031H100.891ZM100.891 47.7248H5.63256L5.98973 48.082V0.452875L5.63256 0.810047H100.891L100.534 0.452875V48.082L100.891 47.7248Z" fill="#FFFFFE"/>
</g>
<path fill-rule="evenodd" clip-rule="evenodd" d="M50.4518 7.9082L50.5116 10.2284L49.9728 10.2584C49.9278 8.83614 49.6284 8.6416 47.4728 8.6416H47.0087V16.8296C47.0087 17.9524 47.2933 18.2519 48.401 18.2817L48.4307 18.671C47.383 18.6557 46.5896 18.6557 46.0658 18.6557C45.5269 18.6557 44.7035 18.6557 43.6258 18.671L43.6556 18.2817C44.7633 18.2519 45.0478 17.9524 45.0478 16.8296V8.6416H44.509C42.2933 8.6416 41.994 8.83614 41.964 10.2584L41.4102 10.2284L41.4702 7.9082C43.506 7.92297 45.0178 7.93797 46.0358 7.93797C47.0087 7.93797 48.4907 7.92297 50.4518 7.9082Z" fill="#FFFFFE"/>
<path fill-rule="evenodd" clip-rule="evenodd" d="M50.852 18.3115C51.855 18.3115 51.9897 18.117 52.0047 16.7097V9.86866C51.9897 8.46188 51.855 8.26687 50.852 8.26687L50.8223 7.90803C52.1843 7.83302 52.4988 7.78826 53.7265 7.56348V12.2041C54.5199 11.3209 55.1933 10.9764 56.0765 10.9764C57.5433 10.9764 58.3514 11.9048 58.3514 13.6114V16.7097C58.3669 18.117 58.5012 18.3115 59.5044 18.3115L59.5342 18.6708C58.6665 18.641 58.0074 18.611 57.5735 18.611C57.1542 18.611 56.5406 18.641 55.7172 18.6708L55.7472 18.3115C56.5406 18.1917 56.6154 18.0419 56.6304 16.7097V14.4345C56.6304 12.5482 56.301 11.9195 55.3133 11.9195C54.7593 11.9195 54.1902 12.2639 53.9509 12.7879C53.8608 12.9677 53.8011 13.162 53.7413 13.3566C53.7265 13.4316 53.7265 13.4916 53.7265 13.5213V16.7097C53.7265 18.0419 53.8163 18.1917 54.6097 18.3115L54.6395 18.6708C53.8011 18.641 53.1872 18.611 52.7681 18.611C52.3341 18.611 51.6754 18.641 50.8223 18.6708L50.852 18.3115Z" fill="#FFFFFE"/>
<path fill-rule="evenodd" clip-rule="evenodd" d="M67.0775 17.2042C66.1491 18.3565 65.2362 18.8355 64.0387 18.8355C61.958 18.8355 60.5508 17.3087 60.5508 15.0483C60.5508 12.6384 62.0026 10.9766 64.0985 10.9766C65.2512 10.9766 66.0593 11.3959 66.6134 12.3091C66.9877 12.9379 67.0923 13.372 67.1073 14.4495H62.3474C62.4069 16.7249 63.2305 18.0121 64.6075 18.0121C65.4307 18.0121 66.1193 17.6378 66.853 16.7847L67.0775 17.2042ZM62.3021 13.8808C63.6791 13.8511 64.0985 13.8211 65.4907 13.6713C65.3112 12.219 64.7573 11.5007 63.8141 11.5007C62.916 11.5007 62.4519 12.249 62.3021 13.8808Z" fill="#FFFFFE"/>
<path fill-rule="evenodd" clip-rule="evenodd" d="M11.0351 33.0724C12.2469 33.0393 12.5624 32.7072 12.5624 31.4621V23.61C12.5624 22.3647 12.2469 22.0327 11.0351 21.9996L10.9854 21.5682L13.5584 21.601L17.609 21.5513L18.6715 21.5682L18.7379 24.0084L18.0738 24.0584C17.9576 22.5475 17.6754 22.3816 15.285 22.3816H14.9197L14.7538 22.398V26.9136C15.069 26.9136 15.3181 26.93 15.4676 26.93C15.7331 26.9467 15.9822 26.9634 16.2313 26.9634C17.5592 26.9634 17.8581 26.681 17.8747 25.4194H18.4391C18.3893 26.4321 18.3893 26.9467 18.3893 27.4446C18.3893 27.8432 18.3893 28.4075 18.4057 29.1547H17.8747C17.8081 27.9594 17.5426 27.727 16.2644 27.7103L15.3679 27.6937L14.7371 27.727V31.2297C14.7371 32.641 14.8202 32.7072 16.2146 32.7072C18.0905 32.7072 18.6384 32.2919 18.8043 30.6818L19.4682 30.7151L19.0865 33.5041L17.8081 33.5206L13.7411 33.4872L10.9854 33.5041L11.0351 33.0724Z" fill="#FFFFFE"/>
<path fill-rule="evenodd" clip-rule="evenodd" d="M28.0318 32.3254C27.0856 33.3047 26.3053 33.6864 25.2097 33.6864C23.0183 33.6864 21.5908 31.9768 21.5908 29.3704C21.5908 26.6809 23.1014 24.9712 25.4919 24.9712C26.1226 24.9712 26.7703 25.0874 27.7663 25.3527L27.7994 27.345L27.0525 27.3947C26.7536 25.9008 26.4548 25.5522 25.4919 25.5522C24.2468 25.5522 23.5996 26.6644 23.5996 28.8058C23.5996 31.3291 24.3796 32.7404 25.7907 32.7404C26.5212 32.7404 27.1353 32.4249 27.7828 31.7277L28.0318 32.3254Z" fill="#FFFFFE"/>
<path fill-rule="evenodd" clip-rule="evenodd" d="M29.8057 29.6523V29.4035C29.8057 26.598 31.3163 24.9712 33.906 24.9712C36.3131 24.9712 38.0063 26.764 38.0063 29.337C38.0063 31.9434 36.3629 33.6864 33.856 33.6864C31.4822 33.6864 29.8885 32.0927 29.8057 29.6523ZM31.8639 29.4699C32.0299 31.8437 32.8102 33.1221 34.0884 33.1221C35.2837 33.1221 35.9976 31.8772 35.9976 29.7854C35.9976 27.3283 35.0182 25.602 33.6569 25.602C32.4452 25.602 31.8308 26.6478 31.8308 28.7232C31.8308 28.972 31.8308 29.2208 31.8639 29.4699Z" fill="#FFFFFE"/>
<path fill-rule="evenodd" clip-rule="evenodd" d="M40.0294 33.1051C41.1417 33.1051 41.3076 32.8897 41.3076 31.3291V27.4778C41.3076 25.9341 41.1417 25.7181 40.0294 25.7015L39.9961 25.3198C41.4738 25.2366 41.8058 25.1869 43.0673 24.9214L43.1504 26.4153C44.0967 25.3526 44.8272 24.9712 45.8397 24.9712C47.45 24.9712 48.363 26.0167 48.363 27.8928V31.3291C48.3463 31.4619 48.3463 31.5948 48.3463 31.7277C48.3463 32.7901 48.6285 33.1051 49.6412 33.1051L49.6745 33.504C48.7116 33.4707 47.9813 33.4373 47.4998 33.4373C47.035 33.4373 46.3376 33.4707 45.4246 33.504L45.4577 33.1051C46.3376 32.9725 46.4373 32.8068 46.4373 31.3291L46.454 30.2833V28.8058C46.454 26.7142 46.0721 26.0167 44.9929 26.0167C44.3457 26.0167 43.7978 26.3656 43.4657 26.9796C43.333 27.2287 43.2168 27.6273 43.2168 27.7933V31.3291C43.2333 32.8068 43.3164 32.9725 44.1962 33.1051L44.246 33.504C43.3164 33.4707 42.6192 33.4373 42.1544 33.4373C41.6729 33.4373 40.959 33.4707 39.9961 33.504L40.0294 33.1051Z" fill="#FFFFFE"/>
<path fill-rule="evenodd" clip-rule="evenodd" d="M51.1357 29.6523V29.4035C51.1357 26.598 52.6463 24.9712 55.2361 24.9712C57.6434 24.9712 59.3364 26.764 59.3364 29.337C59.3364 31.9434 57.6932 33.6864 55.1863 33.6864C52.8123 33.6864 51.2186 32.0927 51.1357 29.6523ZM53.1942 29.4699C53.36 31.8437 54.1405 33.1221 55.4187 33.1221C56.6138 33.1221 57.3282 31.8772 57.3282 29.7854C57.3282 27.3283 56.3481 25.602 54.9868 25.602C53.7755 25.602 53.1611 26.6478 53.1611 28.7232C53.1611 28.972 53.1611 29.2208 53.1942 29.4699Z" fill="#FFFFFE"/>
<path fill-rule="evenodd" clip-rule="evenodd" d="M61.36 33.1051C62.4725 33.1051 62.6384 32.8897 62.6384 31.3291V27.4778C62.6384 25.9341 62.4725 25.7181 61.36 25.7015L61.3271 25.3198C62.8046 25.2366 63.1363 25.1869 64.3979 24.9214L64.4812 26.4153C65.427 25.3695 66.1578 24.9712 67.1371 24.9712C68.266 24.9712 68.9299 25.4357 69.428 26.5482C70.4407 25.3859 71.188 24.9712 72.2004 24.9712C73.7774 24.9712 74.674 26.0336 74.674 27.8928V31.3291C74.674 31.4619 74.6573 31.5948 74.6573 31.7277C74.6573 32.7901 74.9561 33.1051 75.9519 33.1051L75.9855 33.504C75.0223 33.4707 74.2923 33.4373 73.8103 33.4373C73.3457 33.4373 72.6652 33.4707 71.7523 33.504L71.7854 33.1051C72.6652 32.9725 72.7481 32.8068 72.765 31.3291V28.8058C72.765 26.7475 72.3997 26.0167 71.3703 26.0167C70.7563 26.0167 70.1252 26.4153 69.8598 26.9796C69.7766 27.179 69.6935 27.378 69.6438 27.6107C69.6274 27.6935 69.6109 27.76 69.6109 27.7933V31.3291C69.6109 32.8068 69.7105 32.9725 70.5903 33.1051L70.6234 33.504C69.7433 33.4707 69.0794 33.4373 68.6313 33.4373C68.1996 33.4373 67.5522 33.4707 66.6888 33.504L66.7224 33.1051C67.6019 32.9725 67.685 32.8068 67.7017 31.3291V28.8058C67.7017 26.7475 67.3364 26.0167 66.3071 26.0167C65.6763 26.0167 65.1117 26.3822 64.7965 26.9796C64.6636 27.2456 64.5477 27.6273 64.5477 27.7933V31.3291C64.5638 32.8068 64.6472 32.9725 65.527 33.1051L65.5601 33.504C64.6472 33.4707 63.9497 33.4373 63.4849 33.4373C63.0037 33.4373 62.2898 33.4707 61.3271 33.504L61.36 33.1051Z" fill="#FFFFFE"/>
<path fill-rule="evenodd" clip-rule="evenodd" d="M80.7967 24.9218V30.2836L80.8131 31.3294C80.8131 32.89 80.9624 33.1055 82.0915 33.1055L82.1244 33.5044C81.0955 33.471 80.3483 33.4377 79.8337 33.4377C79.3356 33.4377 78.5886 33.471 77.5762 33.5044L77.609 33.1055C78.7215 33.1055 78.8877 32.89 78.8877 31.3294L78.9041 30.2836V28.5406L78.8877 27.4782C78.8877 25.9345 78.7215 25.7185 77.609 25.7018L77.5762 25.3201C79.1034 25.2206 79.452 25.1708 80.7967 24.9218ZM78.6551 22.1492C78.6551 21.5186 79.1532 21.0205 79.7673 21.0205C80.3814 21.0205 80.8795 21.5351 80.8795 22.1492C80.8795 22.7804 80.3981 23.2781 79.7673 23.2781C79.1363 23.2781 78.6551 22.7966 78.6551 22.1492Z" fill="#FFFFFE"/>
<path fill-rule="evenodd" clip-rule="evenodd" d="M84.1643 33.205L84.0977 31.512L84.9446 31.4786C85.3266 32.7568 85.5752 33.0057 86.4552 33.0057C87.2189 33.0057 87.717 32.6073 87.717 32.0096C87.717 31.4453 87.3682 31.0138 86.3224 30.3C85.7914 29.9347 85.4259 29.6859 85.2268 29.5366C84.7951 29.2044 84.4796 28.8058 84.3136 28.3574C84.2141 28.1088 84.1643 27.81 84.1643 27.4614C84.1643 25.9506 85.1935 24.9712 86.7541 24.9712C87.3351 24.9712 87.6672 25.021 89.0116 25.3362L89.045 27.0128L88.1982 27.0461C87.9989 25.9341 87.6503 25.5522 86.8703 25.5522C86.1231 25.5522 85.5921 25.9839 85.5921 26.598C85.5921 27.179 85.8576 27.5276 86.721 28.0753C87.5008 28.5901 88.1151 29.0549 88.5304 29.4201C88.9952 29.8683 89.2607 30.4326 89.2607 31.08C89.2607 32.5575 88.0156 33.6864 86.4221 33.6864C85.8078 33.6864 85.2268 33.5538 84.1643 33.205Z" fill="#FFFFFE"/>
<path fill-rule="evenodd" clip-rule="evenodd" d="M91.0215 25.4527C92.3328 25.3527 92.8476 24.7886 93.2293 23.062H93.9762V25.3029H96.0679L95.8354 26.2161H93.9762V30.3C93.9762 32.3418 94.242 32.823 95.3707 32.823C95.6362 32.823 95.8852 32.7902 96.2838 32.6737V33.155C95.7193 33.4707 94.9392 33.6534 94.1425 33.6534C93.4119 33.6534 92.7147 33.2383 92.4156 32.624C92.1668 32.1094 92.084 31.5949 92.084 30.4657V26.2161H91.0215V25.4527Z" fill="#FFFFFE"/>
</svg>
