<svg width="106" height="50" viewBox="0 0 106 50" fill="none" xmlns="http://www.w3.org/2000/svg">
<path d="M54.1967 46.2723C55.8973 46.2571 57.3042 45.7222 58.4176 44.6677C59.5233 43.6435 60.0914 42.2589 60.1219 40.5139V29.5435H57.594V40.2408C57.5787 41.3712 57.2585 42.2323 56.6332 42.8241C55.9926 43.4462 55.1804 43.7573 54.1967 43.7573C53.213 43.7573 52.4085 43.4462 51.7832 42.8241C51.1426 42.2323 50.8147 41.3712 50.7994 40.2408V29.5435H48.2715V40.5139C48.2867 42.2589 48.8663 43.6435 50.0102 44.6677C51.1312 45.7222 52.5267 46.2571 54.1967 46.2723ZM65.8765 46.1357V39.6604H69.7198C71.4356 39.6301 72.7397 39.0838 73.6319 38.0217C74.5012 37.0126 74.9359 35.8936 74.9359 34.6645C74.9359 33.7541 74.7643 32.9651 74.4211 32.2975C74.0932 31.6071 73.6662 31.076 73.14 30.7042C72.5147 30.2111 71.897 29.8849 71.2869 29.7255C70.6769 29.6042 70.0439 29.5435 69.3881 29.5435H63.3485V46.1357H65.8765ZM69.6169 37.282H65.8765V31.9219H69.5254C70.2117 31.9067 70.8141 32.0623 71.3327 32.3885C71.6759 32.5858 71.9428 32.8551 72.1334 33.1965C72.3164 33.5758 72.4079 34.0424 72.4079 34.5962C72.4079 35.2639 72.183 35.8708 71.7331 36.4171C71.2603 36.9785 70.5549 37.2668 69.6169 37.282Z" fill="white"/>
<path d="M43.5182 30.6143H41.2471V38.5248H43.5182V30.6143Z" fill="white"/>
<path fill-rule="evenodd" clip-rule="evenodd" d="M46.3584 33.4399V35.6994H38.4072V33.4399H46.3584Z" fill="white"/>
<rect x="74.8662" y="26.3818" width="0.138966" height="0.138966" fill="#979797"/>
<path d="M74.9357 26.4507V3H31.1904L31.1904 46.2722H43.5185" stroke="white" stroke-width="1.38966"/>
</svg>
