<svg width="106" height="50" viewBox="0 0 106 50" fill="none" xmlns="http://www.w3.org/2000/svg">
<path fill-rule="evenodd" clip-rule="evenodd" d="M61.3817 11.2402L52.415 34.1409H50.9316L59.8984 11.2402H61.3817Z" fill="white"/>
<path fill-rule="evenodd" clip-rule="evenodd" d="M0 34.4322H22.9324V11.1338H0V34.4322Z" fill="white"/>
<path fill-rule="evenodd" clip-rule="evenodd" d="M98.1396 25.9688L95.5939 17.9131L93.0205 25.9688H98.1396ZM98.1951 11.6309L106 33.9338H100.545L99.2025 29.7558H91.957L90.6425 33.9338H85.1875L92.9644 11.6309H98.1951Z" fill="white"/>
<path fill-rule="evenodd" clip-rule="evenodd" d="M81.971 21.8206V33.9341H78.0547V31.8604C77.5137 32.6615 76.8887 33.253 76.1805 33.6338C75.4717 34.0145 74.7538 34.2746 74.0264 34.4151C73.6722 34.4752 73.3227 34.5205 72.9776 34.5505C72.632 34.5805 72.3017 34.5953 71.9844 34.5953L71.7045 34.6259C71.6858 34.6055 71.6716 34.5953 71.6626 34.5953C71.6535 34.5953 71.6393 34.5953 71.6206 34.5953C71.2104 34.5953 70.5487 34.5556 69.6348 34.4752C68.7209 34.3953 67.7605 34.1148 66.7531 33.6338C65.429 32.9924 64.2217 31.8553 63.131 30.2218C62.0398 28.5889 61.4941 26.0892 61.4941 22.7226C61.4941 19.2358 62.3757 16.4103 64.1378 14.2459C65.9004 12.0822 68.6648 11 72.432 11H72.7119C74.8564 11 76.5346 11.4159 77.7465 12.247C78.959 13.0788 79.8633 13.9859 80.4599 14.9672C80.9823 15.8494 81.3318 16.6709 81.5092 17.4324C81.686 18.1939 81.784 18.6749 81.8027 18.8749H76.4043C76.3669 17.9933 76.0451 17.1916 75.4388 16.4703C74.8332 15.7491 73.8677 15.3785 72.5436 15.3581C70.9402 15.3785 69.7606 15.8193 69.0053 16.6805C68.2501 17.5429 67.7328 18.484 67.4523 19.5061C67.2846 20.1475 67.1775 20.7684 67.1311 21.3701C67.084 21.9713 67.0608 22.4721 67.0608 22.8727C67.0608 25.3776 67.5322 27.1759 68.4733 28.2683C69.4155 29.3601 70.4456 29.9969 71.5646 30.1771C71.7141 30.2173 71.8535 30.2422 71.9844 30.2519C72.1147 30.2621 72.2456 30.2672 72.3759 30.2672C73.7935 30.2269 74.9028 29.7765 75.7046 28.9147C76.5068 28.053 76.9448 27.041 77.0196 25.8784H72.8796V21.8206H81.971Z" fill="white"/>
<path fill-rule="evenodd" clip-rule="evenodd" d="M34.0531 21.6401H38.2492C38.2679 21.6401 38.282 21.6401 38.2911 21.6401C38.3002 21.6401 38.3143 21.6401 38.333 21.6401C39.0979 21.6203 39.8016 21.4197 40.4453 21.0389C41.0883 20.6582 41.4101 19.9267 41.4101 18.8446C41.4101 17.6825 41.0883 16.9114 40.4453 16.5301C39.8016 16.1493 39.0135 15.959 38.0815 15.959H34.0531V21.6401ZM28.8779 11.6309H39.7875C42.3053 11.6309 44.0765 12.2671 45.1026 13.5397C46.1281 14.8122 46.6414 16.2899 46.6414 17.9732C46.6414 19.4361 46.3615 20.5828 45.8017 21.4146C45.2425 22.2463 44.6272 22.8424 43.9552 23.2033C43.8249 23.2832 43.6991 23.3483 43.5779 23.3988C43.4566 23.4486 43.3405 23.4939 43.2283 23.5336V23.6237C44.3286 23.9449 45.0697 24.4906 45.4521 25.2622C45.8346 26.0334 46.0629 26.8504 46.1377 27.7121C46.1564 27.9325 46.17 28.1529 46.1796 28.3733C46.1887 28.5937 46.1938 28.8141 46.1938 29.0345C46.2119 30.3768 46.2538 31.3541 46.3196 31.9649C46.3847 32.5762 46.5479 33.1122 46.8091 33.5734C46.8272 33.6335 46.8556 33.6935 46.893 33.7536C46.9303 33.8137 46.9677 33.8737 47.0046 33.9338H41.7456C41.4475 33.4731 41.247 32.9321 41.1444 32.3105C41.0419 31.6895 40.9716 30.6476 40.9348 29.1847C40.9348 29.0844 40.9297 28.9745 40.9206 28.8544C40.911 28.7337 40.9064 28.6238 40.9064 28.5235C40.8504 27.8221 40.622 27.1756 40.2215 26.5846C39.8203 25.9937 38.9296 25.6979 37.5495 25.6979H34.0531V33.9338H28.8779V11.6309Z" fill="white"/>
</svg>
